<svg id="Layer_1" data-name="Layer 1" xmlns="http://www.w3.org/2000/svg" viewBox="0 0 200 200"><defs><style>.cls-1{fill:#ec0000;}.cls-2{fill:#757575;}</style></defs><path class="cls-1" d="M147.4,133.5,113.9,100l33.5-33.5a9.8,9.8,0,0,0-13.9-13.9L100,86.1,66.5,52.6A9.8,9.8,0,1,0,52.6,66.5L86.1,100,52.6,133.5a9.9,9.9,0,0,0,0,13.9,9.8,9.8,0,0,0,13.9,0L100,113.9l33.5,33.5a9.8,9.8,0,0,0,13.9-13.9Z"/><path class="cls-2" d="M100,200A100,100,0,1,1,200,100,100.2,100.2,0,0,1,100,200Zm0-182.2A82.2,82.2,0,1,0,182.2,100,82.3,82.3,0,0,0,100,17.8Z"/></svg>