<svg id="Layer_1" data-name="Layer 1" xmlns="http://www.w3.org/2000/svg" viewBox="0 0 200 200"><path d="M99.6-.6c-27.3,0-30.7.1-41.4.6A75,75,0,0,0,33.8,4.7,49,49,0,0,0,16,16.3,50.9,50.9,0,0,0,4.4,34,73.3,73.3,0,0,0-.2,58.4C-.7,69.1-.8,72.5-.8,99.8s.1,30.7.6,41.4a70.5,70.5,0,0,0,4.7,24.4,51.1,51.1,0,0,0,29.3,29.3,75,75,0,0,0,24.4,4.7c10.7.5,14.1.6,41.4.6s30.6-.1,41.3-.6a75,75,0,0,0,24.4-4.7,51.3,51.3,0,0,0,29.4-29.4,74.9,74.9,0,0,0,4.7-24.3c.5-10.7.6-14.2.6-41.4s-.1-30.7-.6-41.4A75.5,75.5,0,0,0,194.7,34a49.9,49.9,0,0,0-11.6-17.8A48.4,48.4,0,0,0,165.4,4.7,76.1,76.1,0,0,0,140.9,0c-10.7-.5-14.1-.6-41.4-.6Zm-9,18.1h9c26.8,0,29.9.1,40.5.6a54.4,54.4,0,0,1,18.7,3.5,30.2,30.2,0,0,1,11.5,7.5,30.6,30.6,0,0,1,7.5,11.5,56.7,56.7,0,0,1,3.5,18.6c.5,10.6.5,13.8.5,40.6s0,30-.5,40.5a56.8,56.8,0,0,1-3.5,18.7,33.5,33.5,0,0,1-19,19,56.8,56.8,0,0,1-18.7,3.5c-10.5.5-13.7.6-40.5.6s-30-.1-40.6-.6A55.8,55.8,0,0,1,40.4,178a31.8,31.8,0,0,1-11.6-7.5A31.4,31.4,0,0,1,21.3,159a56.8,56.8,0,0,1-3.5-18.7c-.4-10.6-.5-13.7-.5-40.5s.1-30,.5-40.6a55.8,55.8,0,0,1,3.5-18.6A32.9,32.9,0,0,1,40.4,21.5,53.3,53.3,0,0,1,59,18.1c9.3-.5,12.8-.6,31.6-.6Zm62.5,16.7a12.1,12.1,0,1,0,12.1,12h0a12,12,0,0,0-12-12ZM99.6,48.3a51.6,51.6,0,1,0,51.5,51.5h0A51.5,51.5,0,0,0,99.6,48.3Zm0,18A33.5,33.5,0,1,1,66.2,99.9h0A33.4,33.4,0,0,1,99.6,66.4Z"/></svg>