<svg xmlns="http://www.w3.org/2000/svg" viewBox="0 0 750 500"><defs><linearGradient id="a" x1="139.4" x2="176.1" y1="365.3" y2="305.1" gradientUnits="userSpaceOnUse"><stop offset="0" stop-color="#d9ad1c"/><stop offset="1" stop-color="#ffc445"/></linearGradient><linearGradient id="b" x1="176" x2="179.6" y1="213.2" y2="230.6" gradientTransform="rotate(1.3 430.4 255.2)" gradientUnits="userSpaceOnUse"><stop offset="0" stop-color="#ba7461"/><stop offset="1" stop-color="#e0ac9b"/></linearGradient></defs><path d="M0 0h750v500H0z" fill="#fff5f5"/><path d="M691.4 352a124.9 124.9 0 0 0-11.1-37.7c-5.5-11.8-12.5-23-21.8-32-15.4-14.8-37.2-23.6-46.9-42.6-18.2-35.9 11.9-90-38.9-108.3-20.6-7.4-45.2-.5-63.9-11.7-14.2-8.5-21-25-30.2-38.8-13.9-20.8-35.6-36.6-60.1-41.7s-46.7 3.4-68.6 14.9-29.3 33.8-47.1 48.3c-11.4 9.3-26.6 1.8-40.2 3.5a70.7 70.7 0 0 0-37.9 16.8c-27.5 24.1-29.6 63.7-48.9 93.6-4.9 7.6-10.4 15-17.1 21.1-19.8 18.5-48.1 25-67.3 44.1S57 334.2 58.1 362.4c3.3 89 113.4 70.6 172.9 71.2 76.6.8 153.8-1.5 230.5-.8 46.2.5 90.5 1.8 136.6-2.1 38.5-3.4 80.6-4.6 91.7-49.7a83.2 83.2 0 0 0 1.6-29Z" fill="#e3e6f7"/><path d="M645.2 250.8c-7.6-.2-15.8-3.4-20.4-10s-5-12.1-2.7-18c7.9-20.7 29.3-4.4 36.8 6.5 9.8 14.2-1.1 22-13.7 21.5ZM531.5 97.1a9.7 9.7 0 0 1 1.8 8.9c-1.5 5.3-8.7 8.6-13.9 8-9-.9-18-14.5-15.3-23.2 1.6-5 7.5-8.6 12.3-6.7 2.3.9 4 2.8 5.7 4.5s6.9 5.2 9.4 8.5Z" fill="#e3e6f7"/><rect fill="#7843ab" width="241.4" height="157.8" x="251.8" y="64.5" rx="5.5"/><path d="M256.7 67.5h231.6v144.6H256.7z" fill="#fff"/><path d="M398.9 113.7a33.6 33.6 0 0 0 20 34.7l12.4-31.3Z" fill="#9da6eb"/><path d="m431.2 117.1-12.3 31.3h.3a33.6 33.6 0 0 0 40.8-50L431.3 117Z" fill="#7843ab"/><path d="m422.7 85.3 8.6 31.8 8.8-32.3a33 33 0 0 0-17.4.5Z" fill="#110809"/><path d="m431.2 117.1-8.5-31.8c3.7-1.1-14.1 2.1-21.4 19.1a35.7 35.7 0 0 0-2.5 9.3l32.4 3.4Z" fill="#ffc200"/><path d="M431.3 117.1 453 91a39.9 39.9 0 0 0-7.5-4.4 38 38 0 0 0-5.4-1.8Z" fill="#110809"/><path d="m453 91-21.7 26.1L460 98.5a33.5 33.5 0 0 1-40.8 49.9 33.6 33.6 0 0 0 28.4-60.8A37.7 37.7 0 0 1 453 91Z" fill="#d9e0ff"/><path d="M355.8 148.8h-7.6v-57h7.6z" fill="#7843ab"/><path d="M339.3 148.6h-7.6v-44.3h7.6z" fill="#ffc200"/><path d="M322.5 148.7h-7.6v-33.8h7.6z" fill="#3950c2"/><path d="M305.6 148.7H298v-24.8h7.6zm-16.8 0h-7.6v-16.4h7.6z" fill="#d9e0ff"/><path d="M271.4 147.8H360v1.4h-88.6z" fill="#1e242b"/><path d="M271.2 149.2V86.7h1.7v62.5z" fill="#1e242b"/><path d="m273 148 82.7-60.4m-10.6 0h10.6v9.9" fill="none" stroke="#1e242b" stroke-miterlimit="10"/><path d="M467.8 199.5zm0 0z" fill="none"/><path d="M410.2 162.5h61m-61 8.9h61m-61 8.8h61m-61 8.9h47.4M273 165.3h69.3m-69.3 8h56.3" fill="none" stroke="#110809" stroke-miterlimit="10"/><path d="M273 183.9h15.8v6H273z" fill="#ffc200"/><path d="M273 196h15.8v6H273z" fill="#7843ab"/><path d="M299.7 183.9h15.8v6h-15.8z" fill="#110809"/><path d="M299.7 196h15.8v6h-15.8z" fill="#d9e0ff"/><path d="M263 217.3h10.3m6.6 0h10.2" fill="none" stroke="#110809" stroke-miterlimit="10"/><path d="M496.6 392.3c4.7 9.4-2.4 14.4-6.8 22.3-1 1.6-1.6 4-.1 5.2s3.6.1 5.2-.9l23.7-16.8c4.6-3.2-8.1-15.9-10.6-19.1l-1.7-2.2c-2.8-3.8-7.6-4.8-10.6-2.2s-2.9 6.6-1 10.3Z" fill="#110809"/><path d="M453.6 302.8c4.3-1.6 9.7-1.3 14.3-1.4s9.9.1 14.9-.1 9.1-.5 13.3-2.3a37.6 37.6 0 0 0 9.6-6.2c5.8-5.1 10.2-11.6 14.2-18.2s15.5-26 4.3-33.4c-5.8-3.9-9.7.4-11.7 5.8a70.2 70.2 0 0 0-2.4 9 52.3 52.3 0 0 1-4 11.5 66.5 66.5 0 0 1-4.1 7.4 32.7 32.7 0 0 1-6.8 7.1 66.7 66.7 0 0 1-16.5 8.7c-3.2 1.2-6.6 2.4-9.9 3.4s-6.6 2.4-9.6 2.1l-2.5-.6a14.2 14.2 0 0 0-8.4.7 46.6 46.6 0 0 0-7.6 4.1c-2.2 1.4.6 2 2 1.6a30 30 0 0 0 5-2.7 13.5 13.5 0 0 0-4.2 3.7c-.2.3-.3.8.1.9s.3 0 .5-.1a33.7 33.7 0 0 0 3.8-2.8c-1.3 1.1 1.8 2.6 2.5 2.6a11.6 11.6 0 0 0 3.2-.8Z" fill="#8a5648"/><path d="M540.2 411.9h-3v-65.4h3z" fill="#110809"/><path d="M564.6 425.6c0-9.7-17.1-13.7-25.6-13.7-10.2-.1-25.6 3.7-25.6 13.7m25.3 2.6v-16.1" fill="none" stroke="#110809" stroke-miterlimit="10" stroke-width="2"/><path d="M509.2 427.9a4.2 4.2 0 1 0 4.2-4.2 4.2 4.2 0 0 0-4.2 4.2Zm25.4 0a4.2 4.2 0 1 0 4.2-4.2 4.2 4.2 0 0 0-4.2 4.2Zm25.4 0a4.2 4.2 0 1 0 4.2-4.2 4.2 4.2 0 0 0-4.2 4.2Zm-18.4-105v-48.1a15.1 15.1 0 0 1 15.1-15.1h16.5a15.1 15.1 0 0 1 15.1 15.1v53.7a21.6 21.6 0 0 1-21.6 21.6h-54.1a2.5 2.5 0 0 1-2.5-2.5 2.5 2.5 0 0 1 2.5-2.5h6.8a22.2 22.2 0 0 0 22.2-22.2Zm-70.8 109.9h8.5l4.1-.3 16.9-.4c1.5 0 2.7-1.5 2.7-3.3v-21.9c.1-4.7-3.2-8.4-7.1-8.1s-6.3 3.5-7 7.5l-.7 3.9c-.6 3.6-1.6 6.6-4.8 9.1s-10.8 3.2-15.8 6.5a3.8 3.8 0 0 0-1.1 1.1 3.3 3.3 0 0 0 .1 3.2 6.4 6.4 0 0 0 4.2 2.7Z" fill="#110809"/><path d="M519.6 289.7Zm11.3-53.9-.2 1.1.2-1.1z" fill="#7a483a"/><path d="M514.3 235.5a23.7 23.7 0 0 1 3.7-6.3 25 25 0 0 1 18.6-8.9 241 241 0 0 1-2.6 19c-1.4 8-2.3 16-6.4 23.3-6-2.9-13-3.4-18.5-7.3 1.2-5.5 3.1-14.4 5.2-19.8Z" fill="#ffc200"/><path d="M465.4 328.5a18.5 18.5 0 0 1 6.7-8 44.4 44.4 0 0 1 11.1-5c14.2-4.5 28.4-5.5 43.1-7l5.8-.5h.5c7.1-.1 13.3 7.3 13.9 16.6s-4.8 16.9-11.9 17h-.4c-10 .2-20.1-.7-30.1-.2-7.9.3-16 3.6-23.7 5.5-4.4 1.2-9.8 1.7-13-1.6a12.2 12.2 0 0 1-2.5-6.1 20 20 0 0 1 0-9.1 8.8 8.8 0 0 1 .5-1.6Z" fill="#7843ab"/><path d="M472.8 319.8a14 14 0 0 1 12.7-1.2c10.6 4.5 11.8 24.1 13.9 33.8a387 387 0 0 1 3.9 21.5c.3 2 3.9 20.1 2.7 20.7s-19.9 2.4-19.8 2.8l-10-26.2c-5.2-13.4-20-38.7-4.5-50.7Z" fill="#7843ab"/><path d="M490.9 334.2c4.6-7.5 17.3-11.9 24.8-15.6 4-1.9 8-3.7 11.9-5.8a63.8 63.8 0 0 0 14.5-11c3.5-3.4 7.2-6.8 11.8-8.6s10-2 14 .8c5.5 3.6 6.7 11 7.2 17.6.6 11.1-.3 25.4-12.8 29.5l-16.6 5.6-34.1 11.4h-.4l-.9.3c-4.6 1.1-10.8-1.2-15.8-6.1s-7.1-12.5-3.6-18.1Z" fill="#7843ab"/><path d="M521.9 228.3c9.3-11.4 28.9-6.9 37.4 4.3 4.5 5.9 3.5 7.9 5.3 15.2 6.4 25.8 9.7 38.6 10.5 56.9a4.4 4.4 0 0 1-.3 2c-.6 1.3-2.3 1.6-3.7 1.6-6.4.4-12.4.1-18.8.1-4.6-.2-9.2-.4-13.9-1-3-.3-8.6 0-9.5-3.7l-7.4-32.8a221.3 221.3 0 0 1-4.3-22.7c-.6-4.8-.6-10.2 1.5-14.7a21.4 21.4 0 0 1 3.2-5.2Z" fill="#ffc200"/><path d="M531.4 234.3a8.1 8.1 0 0 0 6.5-9.8l-4-18.8-14.9 2.6 2.9 19.1a8 8 0 0 0 9.5 6.9Z" fill="#9e6555"/><path d="M524.9 218.7a5.7 5.7 0 0 0 5-1.5 20.4 20.4 0 0 0 3.6-4.6c2.6-4 5.4-8.3 5.1-13.1a9.5 9.5 0 0 0-2.7-5.9 4.3 4.3 0 0 0-2.6-1.6 17.6 17.6 0 0 0-4 .2 19.8 19.8 0 0 1-5.4-.5c-1.1-.3-2.4-.7-3.4-.2a4.1 4.1 0 0 0-1.7 3.1c-.6 2.7-1.4 5.3-1.9 7.9s0 5.4 0 8.2a9.7 9.7 0 0 0 8 8Z" fill="#9e6555"/><path d="M538 205.4a20 20 0 0 0 2.7-4.4 5.9 5.9 0 0 0 .6-3.2c-.6-4.8-6-8.5-10.3-9.3-1.9-.3-3.8-.4-5.7-.8a15.4 15.4 0 0 0-4.2-.7 5.7 5.7 0 0 0-4.6 2.5 4.8 4.8 0 0 0-.7 3.3 3 3 0 0 0 2.2 2.4 6.9 6.9 0 0 0 2.8-.3c3.3-.8 5.9.4 9.1 1.4a6.3 6.3 0 0 1 4.1 3c1.7 3.5-2.7 7.4-.8 10.5s3.8-3 4.8-4.4Z" fill="#110809"/><path d="M491.3 334.6c-5.1 9.6-4.2 20.5-4.8 30.9s-2.8 22.5-2.2 33.8c.5 8.9 7.8 16.4 17.3 13.5a12.2 12.2 0 0 0 7.1-6.8 35.8 35.8 0 0 0 2.7-9.7c3.8-20.6 5.4-41.6 7.2-62.4 1.2-15.6-22.7-7.9-27.3.7Z" fill="#7843ab"/><path d="m267.1 276.9.7 10-17.1-4.3 1.1-9.6 6.1 1.8a.8.8 0 0 0 .8-.1l3.8-2.1a3.1 3.1 0 0 1 2.5-.2" fill="#edc4ac"/><path d="M173.8 346h3v67.1h-3z" fill="#110809"/><path d="M149.3 426.7c0-9.6 17.1-13.7 25.7-13.7 10.1 0 25.6 3.7 25.6 13.7m-25.4 2.6v-16" fill="none" stroke="#110809" stroke-miterlimit="10" stroke-width="2"/><path d="M204.8 429.1a4.1 4.1 0 0 1-4.2 4.1 4.2 4.2 0 1 1 0-8.3 4.2 4.2 0 0 1 4.2 4.2Zm-25.4 0a4.1 4.1 0 0 1-4.2 4.1 4.2 4.2 0 1 1 0-8.3 4.2 4.2 0 0 1 4.2 4.2Zm-25.4 0a4.1 4.1 0 0 1-4.2 4.1 4.2 4.2 0 1 1 0-8.3 4.2 4.2 0 0 1 4.2 4.2Zm18.4-101.7v-48.1a15.2 15.2 0 0 0-15.1-15.1h-16.6a15.2 15.2 0 0 0-15.1 15.1v53.8a21.7 21.7 0 0 0 21.6 21.6h54.1a2.6 2.6 0 0 0 2.6-2.6 2.6 2.6 0 0 0-2.6-2.5h-6.7a22.2 22.2 0 0 1-22.2-22.2Zm104.1 88.8a23.9 23.9 0 0 0 1.3 2.1c1.5 2.1 4.8 4 7.5 3.6s5.7-1.4 8.7-1.2a4.3 4.3 0 0 1 2.9 1c3.4 3.3-4.6 6.3-6.9 6.9l-15.1 4.6a7 7 0 0 1-2.9.3c-3.9-.7-5.1-5.8-6.2-8.8s-2.3-4.1-3.2-6.2-1.7-5.8-.3-7.2l1.3-.8c.9-.5 1.5-1.2 2.4-1.7 2.5-1.3 5.6.2 7.4 2.3a26.7 26.7 0 0 1 3.1 5.1Z" fill="#110809"/><path d="m192.7 294.8-.1-.2Zm-11.4-53.9.3 1.1-.3-1.1zm11.2 53.1.1.6v-.6Zm15.9-2.3-15.7 3.1a8 8 0 0 0 9.1 5.7 8.2 8.2 0 0 0 6.6-8.8Z" fill="#e6ac8e"/><path d="M253.1 333.8c-.1-.9-.7-1.8-.7-2.7-.9-18.1-47.6-19.8-59.8-20.6a30 30 0 0 0-12.3 1.1c-7.1 2.5-14.7 11.8-14.5 19.6s5.3 15.4 13.5 15.7h.5l36.5.2c5.7.1 11.5.7 17.3.7s10.2.9 14.2-1.7a12.4 12.4 0 0 0 5.3-12.3Z" fill="#ffc200"/><path d="M198.7 329.5c11.7 6.4-9.9 17.3-21.2 17.4h-19.6c-11.3 0-20.1-5.7-20.5-16.9v-33.8h43.5s5 26.3 17.8 33.3Z" fill="url(#a)"/><path d="M241.1 334.7c-9.1-6-45.9-15-50.9-16.9a64 64 0 0 0-31.5-4.2c-9 1.2-18.4 2.7-20.6 12.9a16.8 16.8 0 0 0 12.8 20.1h.6l84.5 16.8h.6l1.4.2c6.6.8 11.9-3.1 13.4-9.7s-2.6-14-10.3-19.2Z" fill="#ffc200"/><path d="M209.2 254.5c-2.4-3.4-4.4-7-6.5-10.5s-4.9-9.3-8.4-12.5l-3.2-2.6c-3.4-2.1-12.3-5.1-14.2.3a8.9 8.9 0 0 0-.1 4.6 57 57 0 0 0 8.9 20l.4.6c3.8 6.1 7.4 12.4 12.5 17.5s13.1 10.2 19.4 4.7a7.3 7.3 0 0 0 2.5-6.8c-.9-5-5.9-8.3-8.9-12.1a24.3 24.3 0 0 1-2.4-3.2Z" fill="#7843ab"/><path d="M274.3 409.8c1.3-5.6-2.5-11.5-4.8-16.5l-8.5-18.2c-2.8-6-6.4-15.2-10.3-22.4l-3.7-6.8c-3.6-5.9-18.6-9.2-24.9-6.1s-5.9 9.1-2.3 15l2.4 6.6 14.6 22.4 11.9 18.3c3.9 6.1 5.6 13.1 13.6 14.8 4 .9 8.8-.6 10.8-4.2a8.1 8.1 0 0 0 1.2-2.9Z" fill="#ffc200"/><path d="M194.8 234.9c-1.3-8.4-9.5-9.4-16.8-9.7s-14 .1-20.9 2.8-14.5 8.6-18.2 15.8-.5 17.1-.4 25c.1 15.2-.2 30.3-.9 45.6 7.5-.4 14.9-.4 22.4-.8a156.2 156.2 0 0 0 18-1.6c2.2-.3 8-.6 9.5-2.3s.4-3.3.5-4.4l.5-5.2c.8-7.2 2.1-14.4 3.3-21.5 2.4-14.2 4.7-28.7 3.1-43.1a1.3 1.3 0 0 1-.1-.6Z" fill="#7843ab"/><path d="M173.9 235.9a8.2 8.2 0 0 1-6.3-10l4.5-18.7 14.7 3-3.2 19a8.1 8.1 0 0 1-9.7 6.7Z" fill="#e0ac9b"/><path d="m170.5 214.1 15.4-.9-1.5 11.5-9 1.1-4.9-11.7z" fill="url(#b)"/><path d="M175.5 220.2a11.1 11.1 0 0 1-7.6-8.6l-1.5-7.1a8.3 8.3 0 0 1 6.5-9.8c3.8-.8 9.2-3.3 12.3.1a13.3 13.3 0 0 1 2.3 4.6c1.2 4 2.6 9.9 1.3 14a10.7 10.7 0 0 1-13.3 6.8Z" fill="#e0ac9b"/><path d="m188.3 195.8-1.2.6c-4 1.8-8.6 1.4-12.6 3.2a6 6 0 0 0-3.6 4c-.6 2.9-.2 5.9-.4 8.9-.1 1.3-.7 2.9-2 2.9a2.3 2.3 0 0 1-1.8-1.4 21.9 21.9 0 0 1-3.9-13.3c.2-3.6.5-6.6 3.8-8.9a21.2 21.2 0 0 1 6.6-2.6 2.9 2.9 0 0 1 1.3-.1c.4.2.8.7.5 1.1 2.8-1.3 5.8-2.6 8.8-2.1.8.2 1.7.6 1.7 1.4s-.5 1-1 1.4a9.2 9.2 0 0 1 2.7-.8 3.3 3.3 0 0 1 2.5 1 2.7 2.7 0 0 1 .1 3.2 5.4 5.4 0 0 1-1.5 1.5Z" fill="#110809"/><path d="M130.9 293.9h16c-.4-7.9 2.5-16.9 4.5-24.5s4.7-16.6 7-24.9c.7-2.4 1.4-4.8 1.1-7.2s-2.6-7.1-5.6-7.1a5.8 5.8 0 0 0-3.1 1.1c-6.9 3.8-11.7 10.5-14.6 17.8s-3.8 15.2-4.4 23c-.1 1.8-1.2 21.8-.9 21.8Z" fill="#7843ab"/><path d="m195.1 294.6-41.2-7-9.6 1c-1.5 4.3-3.3 8.5-5 12.7H195a.6.6 0 0 0 .6-.6l.3-5.2a.8.8 0 0 0-.8-.9Zm16.9-2.8c-3.4-.6-4.7.3-8.1 1.6-1.3.4-3.1-1-1.9-1.5 3.5-1.6 7.8-3.3 11.3-1.5.8.5 0 1.6-1.3 1.4Z" fill="#e0ac9b"/><path d="M193 295.9a13.3 13.3 0 0 1 6-3.1c2.7-.9 5.4-1.5 10.4-.4 1.7.4-.9 2.9-2.1 4.6s-3.3 4.8-4.6 4.6c-3.1-.4-3-.7-6.6-.3s-6.8-1.8-3.1-5.4Z" fill="#e0ac9b"/><path d="M211.4 304.9a16.5 16.5 0 0 0-10.1-5.7c-1.9-.3-1.7 1.8 0 2.1a14 14 0 0 1 8.3 4.3c1 1 2.7.4 1.8-.7Zm7.1-1.7c-5.1-6.8-10.2-9.2-17.9-8.3-1.3.2-.9 2.2.4 2.1 6.3-.4 11.7 1.2 15.4 6.3.8 1.1 3 1 2.1-.1Z" fill="#e0ac9b"/><path d="M214.6 304.7c-2.3-2.6-4.8-5.3-7.9-7s-5.6-1.3-8.7-1c-1.3.1-.8 2.2.5 2 3.2-.3 5.9-.1 8.6 1.8a24 24 0 0 1 5.5 4.6c.9 1 2.9.6 2-.4Zm-5.2-12.3c-1.3-.4-2.4 1.4-1.1 1.8 4.3 1.6 6.2 2.1 9.1 5.6.9 1.1 2.6.5 1.7-.6-3.2-3.7-5-5.1-9.7-6.8Z" fill="#e0ac9b"/><path d="m180.9 302.7.8-2.3c.5-2.6 2.2-8.8 2.6-11.4l-43.3-3.6-1.9-.3a8.1 8.1 0 0 0-8.2 7.9 8 8 0 0 0 7.9 8.2Z" fill="#7843ab"/><path d="m554.9 291.1-2 4.1c-.7 1.3-2.5 4.2-4.8 4.7a134 134 0 0 1-34.1 1.6c-.6-.1-1.5-.2-1.7-.9s.1-.7.2-1.1a18.9 18.9 0 0 1 9.7-10.5c1.1-.6 16-5.9 16.1-3.8-.2-10.7-.4-21.5 2.5-31.8a18.8 18.8 0 0 1 4.3-8.7c2.2-2.4 5.6-3.9 8.8-3.1s5 3.3 6.1 6.1a49 49 0 0 1 .8 21.9 70.2 70.2 0 0 1-5.9 21.5Z" fill="#8a5648"/><path d="M253 270.8c-5.9-.3-13-1.9-18.5-2.9l-10.9-2.1c-3-.5-5.6-2-8.7-2a10.4 10.4 0 0 0-7.2 2.5c-2 1.8-6.4 7.6-3.6 10.1s7.6 3.7 11.7 4.5c6.4 1.3 12.8 1.5 19.3 1.8s11 .6 16.6.7c.5-4.2 1.1-8.4 1.3-12.6Z" fill="#7843ab"/><path d="M346.8 236.1c-1.6-1.2-3.3-2.4-5.2-2.5s-4.7 1.4-6.4 3.1a24.8 24.8 0 0 0-5.8 9.2c-.7 2-1 4.5.2 6.2a4.7 4.7 0 0 0 4.1 1.8 7.4 7.4 0 0 0 4.2-1.9c1.3-1.2 2.2-2.6 3.4-3.9a5.9 5.9 0 0 1 4.4-2.4c3.1-.1 4.4 3.1 6.8 4.2l1.1.3 1.6.3a1.2 1.2 0 0 0 1.3-1.5c-1.6-5.7-5.1-9.1-9.7-12.9Zm25.2-2.5 2.4-.9c3.7-1 8.5-.6 11.2 2.4s3 7.4 3.1 10.8a30.4 30.4 0 0 1-.6 7.4 6.4 6.4 0 0 1-1.3 3.3c-2.5 2.9-6.3 1.1-7.7-1.6-.6-1.1-2.6-9.8-3.6-9.7l-11.1.8c-1.3.1-6 1.3-7.2.4s2.6-3.5 3.4-4.3c3.6-3.2 7.1-6.7 11.4-8.6Zm-13.1-11.8c2.7-5.2 6.9-9.4 10.9-13.6 1.2-1.2 2.4-2.4 4-2.5s3.6 1.6 4.1 3.5a10.8 10.8 0 0 1-.6 5.6c-2.8 8-8.4 13-14.5 18.6-1.6 1.6-3.3 3.2-4.1 5.3-.1.3-.2.6-.5.5s-.2-.2-.3-.4a21 21 0 0 1 1-17Z" fill="#007772"/><path d="M359.8 231.9a204.6 204.6 0 0 0-5.5 58.9" fill="none" stroke="#007772" stroke-miterlimit="10"/><path d="M366.3 302h-18.9c-3.2-8.6-7.1-17.2-5.9-25.8a79.7 79.7 0 0 1 30 0c.8 7.8-2.6 16.4-5.2 25.8Z" fill="#ffc200"/><path d="M357.6 258.2c1.5-1.7 3.6-2.8 5.2-4.4s1.8-2.2 2.8-3 2.7-1.3 3.9-.6a3.6 3.6 0 0 1 1.5 2.1 7.7 7.7 0 0 1-1.6 6.5 18.4 18.4 0 0 1-5.5 4.1 35.8 35.8 0 0 0-5.9 3.6c-.7.5-2 1.7-2.9 1.6s-.5-.8-.4-2c.1-2.9.8-5.8 2.9-7.9Z" fill="#007772"/><path d="M538.9 244.7a5.2 5.2 0 0 1-.2 1.1c-.4 2.1-4 13.9-2.9 15.2s5.1 3 8 3.7l20 4.8c.4.1-.3-10.7-.3-11.8-.1-8.7.8-17.4-4.2-25.1a15.1 15.1 0 0 0-7.3-5.9c-2.4-.9-5.5-1.1-7.2.8a7.4 7.4 0 0 0-1.4 2.8 89.1 89.1 0 0 0-4.5 14.4Z" fill="#ffc200"/><path d="M107.3 436.7h2.1l17.5-134.4h-2.2l-17.4 134.4zm19.3 0h2.1l17.5-134.4H144l-17.4 134.4zm511.6 0h-2.1l-17.4-134.4h2.1l17.4 134.4zm-19.3 0h-2.1l-17.5-134.4h2.2l17.4 134.4z" fill="#343c40"/><path d="M94 301.2h556.9v5.7H94z" fill="#110809"/><path d="M123.9 306.4H621v2.2H123.9z" fill="#343c40"/><path d="M491.9 302h61.4a2.1 2.1 0 0 0-2.1-2.2h-59.3Z" fill="#d9e0ff"/><path d="M481.3 299.8h61.4l-10.9-32.4a3 3 0 0 0-2.8-1.9h-55.3a2.7 2.7 0 0 0-2.8 3.5Z" fill="#fff5f5"/><path d="M543.1 302h-61.7v-2.1h61.7z" fill="#a3b4ff"/><path d="M503.3 282.3a2.8 2.8 0 0 0 5.4-.5 2.8 2.8 0 0 0-2.9-2.5h-.5a2.8 2.8 0 0 0-2 3Zm2.3-2.2h.2a1.9 1.9 0 0 1 1.7.9c.8 1.4-.3 2.4-1.5 2.4a1.7 1.7 0 0 1-.4-3.3Zm-229.1 21.2h-61.4a2.1 2.1 0 0 1 2.1-2.1h59.3Zm10.6-2.1h-61.4l10.9-32.5a2.9 2.9 0 0 1 2.8-1.8h55.3a2.7 2.7 0 0 1 2.8 3.4Z" fill="#110809"/><path d="M225.4 299.2h61.7v2.1h-61.7z" fill="#494949"/><path d="M263 278.7h-.4a2.9 2.9 0 0 0-2.9 2.5 2.5 2.5 0 0 0 2.5 2.5 2.5 2.5 0 1 0 .8-4.9Zm-.6 4.1c-1.2-.1-2.3-1-1.5-2.5a2.1 2.1 0 0 1 1.7-.9h.2a1.7 1.7 0 0 1-.4 3.4Zm272-75.2-2.8-1-1.6-.5-.7-.4h-.6l-1.8-1.8a10.3 10.3 0 0 0-5-2.5 8.1 8.1 0 0 0-5.8 2.5v.5a19.3 19.3 0 0 0 .3 7.2c1.6 5.5 6.8 6.1 11.2 3.5l.5-.2 2.7-1.7a15.5 15.5 0 0 0 4.4-4.8c.4-.6-.3-1.1-.8-.8Zm-4.2 4.8-1.9 1.3a23.7 23.7 0 0 0 1.4-6.4l1.5.5a8.7 8.7 0 0 0 2.8.5 16.6 16.6 0 0 1-3.8 4.1Z" fill="#fff5f5"/><path d="M531.8 206.1a3.8 3.8 0 0 1 .1 1.5l-.2 1.1c0 .4 1.2 2.8 2.4 2.2a1.8 1.8 0 0 0 .5-.7c1.1-1.6 2.2-7.7-1.6-6.3a2 2 0 0 0-1.2 1.2 3.3 3.3 0 0 0 0 1Z" fill="#9e6555"/><path d="M533.2 206.1a.6.6 0 0 1 .8.1c.3.2.3.6.3.9a2.4 2.4 0 0 1-.9 2" fill="#110809"/><path d="M227 330.6c-7.2-5.9-17.4-5.7-26.5-7.2a65.8 65.8 0 0 1-19.3-6.1m-24.9-65.5-8 27.4c-.5 1.9-1 4 .1 5.6s3.3 1.9 5.2 2l27.8 1.8m340.8 26.7q-10.1 4.8-19.8 10.2c-3.4 1.9-6.9 4-9.5 7-4.4 5.3-5.2 12.7-5.7 19.6-1.1 15.3-2.9 24.7-3 40m55.9-151.7a45.8 45.8 0 0 0-3.2 21.7m25.9 6.8c.6-5.3 1-10.5 1.3-15.8m-44.7 6a52.5 52.5 0 0 1-1.3-13.1" fill="none" stroke="#110809" stroke-miterlimit="10" stroke-width=".5"/><path d="M189.5 205.9a2 2 0 0 0-1.2-.8 6.1 6.1 0 0 0-2.7 0 36.9 36.9 0 0 0-4.5 1.1 4 4 0 0 1-3.8-.3l-3.5-1.9a6.2 6.2 0 0 0-3.2-.9c-2.4.2-3 2.6-2.8 4.7a4.1 4.1 0 0 0 1.3 2.7 15.1 15.1 0 0 0 2.6 1.8 14.3 14.3 0 0 1 2.6 2.3 7.9 7.9 0 0 0 .8 3 5.6 5.6 0 0 0 4.2 3.4 11.9 11.9 0 0 0 5.6-1c2.8-1.5 4.1-4.8 4.6-8 .3-1.6 1.1-4.5 0-6.1Zm-17.7 5a6 6 0 0 1-2.3-1.9 4.2 4.2 0 0 1-.4-3.1 1.9 1.9 0 0 1 2.4-1.5 14.8 14.8 0 0 1 3.2 1.4l2.9 1.5a8.1 8.1 0 0 0-3.2 5.4h-.1a15.6 15.6 0 0 0-2.5-1.8Z" fill="#fff5f5"/><path d="M173.5 208.2c-.3 1.8-.9 3.6-3.1 2.8-3.7-1.2-4.4-6.6-.8-8.4a2.2 2.2 0 0 1 2.2-.1 1.8 1.8 0 0 1 .7.5 4.5 4.5 0 0 1 1.2 3.7l-.2 1.5Z" fill="#e0ac9b"/><path d="M171.2 205.6a1.7 1.7 0 0 0-1.6.6 1.5 1.5 0 0 0-.1 1.7 1.5 1.5 0 0 0 1.6.5" fill="#110809"/><path d="M389.8 281.8h16.4v19.4h-16.4z" fill="#7843ab"/><path d="M260 397.3c.8 2.4 1.8 4.4 4.6 5.8s9.2.8 13.5 2.4c.4.2.8.3 1 .6a2.1 2.1 0 0 1 .2 2.3c-2.1 3.8-9.8 3.3-13.5 3.8l-13.9 1.9a2.2 2.2 0 0 1-2.5-1.9l-1.5-13.3-.3-2a5.9 5.9 0 0 1 5.2-6.5 6.2 6.2 0 0 1 6.4 4.3l.8 2.6Z" fill="#110809"/><path d="M241 318.6a11.5 11.5 0 0 0-12.5 7.1 14.1 14.1 0 0 0-.7 6.4 56.3 56.3 0 0 0 2.1 10.7c2.3 8.9 2.6 19.3 5.3 28.1 1.5 5.3 2.5 11.4 3.8 16.7.6 2.9 3.7 9.7 7.7 11.2a10.9 10.9 0 0 0 4.4.5c3.9-.2 8.2-.7 10.8-3.7s2.3-7.2 2-11.1c-1.1-14-1.7-27.8-4.6-41.6a57.8 57.8 0 0 0-4.7-14.2c-3-5.8-7.3-9-13.6-10.1Z" fill="#ffc200"/><path d="M260 397.3c5.7-4.4 3.6-9.5 3.4-17.4m-35.9-48.6c7.4 27.7 8 66 20.4 67.6" fill="none" stroke="#110809" stroke-miterlimit="10" stroke-width=".5"/><path d="M141.7 199.7a37.7 37.7 0 0 0-24.3 26.9c-.8 4.5-.4 9.9 3.8 12.5s6.9 1.6 10.1.2a23.8 23.8 0 0 0 7.8-6.3 61.2 61.2 0 0 0 9.1-14.2c2.8-6.1 6.6-23.8-6.5-19.1Z" fill="#e3e6f7"/><path d="M94.3 436.7h156.4m277 0h126.8m-350.6 22.6h115m55.6-22.6h31.8M393 432.4h156.4m-382.7.8h156.4" fill="none" stroke="#110809" stroke-miterlimit="10" stroke-width=".5"/><path d="M361 367.1c6-4.3 12.2-8.7 19.4-10.3s15.7 0 20 6.1 2.7 16.2-.1 24.1c-.2.4-.4.8-.7.9s-.6-.7-.3-.7" fill="none" stroke="#110809" stroke-miterlimit="10" stroke-width="2"/><path d="M341.3 372h3v67.1h-3z" fill="#110809"/><path d="M316.8 452.8c0-9.7 17.1-13.7 25.6-13.7 10.2 0 25.6 3.7 25.6 13.7m-25.3 2.6v-16.1" fill="none" stroke="#110809" stroke-miterlimit="10" stroke-width="2"/><path d="M372.2 455.1a4.2 4.2 0 1 1-4.2-4.2 4.2 4.2 0 0 1 4.2 4.2Zm-25.4 0a4.2 4.2 0 1 1-4.2-4.2 4.2 4.2 0 0 1 4.2 4.2Zm-25.4 0a4.2 4.2 0 1 1-4.2-4.2 4.2 4.2 0 0 1 4.2 4.2Z" fill="#110809"/><path d="M405.5 392.3a4.3 4.3 0 0 0 .2-1.2c.5-6.5-7.7-7.4-12.4-8s-12.8-1.1-16.4-6.4-4.7-15.6-5.1-23.1-.6-13.5-3.4-19.6c-6.1-13.2-24.1-13.5-36.7-13.4-7.7 0-15.8 1.2-21.9 6s-7.7 9.6-9.3 15.6-1.7 12.2-1.9 18.4c-.4 11.8 1.5 31.6 17.4 31.6Z" fill="#7843ab"/></svg>