<svg id="Layer_2" data-name="Layer 2" xmlns="http://www.w3.org/2000/svg" viewBox="0 0 182.1 200"><defs><style>.cls-1{fill:none;stroke:#1d1d1b;stroke-miterlimit:10;stroke-width:6px;}</style></defs><path class="cls-1" d="M39.7,74.1V16.9A13.9,13.9,0,0,1,53.6,3h64.5a24.5,24.5,0,0,1,17.3,7.2l36.5,36.4a24.5,24.5,0,0,1,7.2,17.3V183.1A13.9,13.9,0,0,1,165.2,197H53.6a13.9,13.9,0,0,1-13.9-13.9V156.8"/><path class="cls-1" d="M124.9,4V41.4A16.2,16.2,0,0,0,141,57.6h37.3"/><rect class="cls-1" x="3" y="74.1" width="139.7" height="82.79" rx="12"/><path d="M37.3,94.4a10.4,10.4,0,0,1,5.8,1.8,14.3,14.3,0,0,1,4.4,18.5,13.1,13.1,0,0,1-4.4,4.9,10.4,10.4,0,0,1-5.8,1.8H26.2l.6-1v12.4a3.9,3.9,0,0,1-.9,2.6,3.4,3.4,0,0,1-2.6,1,3,3,0,0,1-2.4-1,3.5,3.5,0,0,1-1-2.6V98.1A3.6,3.6,0,0,1,21,95.5a3.5,3.5,0,0,1,2.6-1.1Zm0,20.2a3.2,3.2,0,0,0,2.2-1,7.4,7.4,0,0,0,2.5-5.7,7.1,7.1,0,0,0-.7-3.2,7.6,7.6,0,0,0-1.8-2.4,3.6,3.6,0,0,0-2.2-1H26.1l.7-1v15.3l-.6-1Z"/><path d="M74.1,94.4a17.4,17.4,0,0,1,7.7,1.7,15.3,15.3,0,0,1,5.6,4.5,19.5,19.5,0,0,1,3.5,6.7,27.4,27.4,0,0,1,1.2,8.1A25.7,25.7,0,0,1,90,126a17.7,17.7,0,0,1-6.1,7.6,16.4,16.4,0,0,1-9.8,2.8H59.8a3.6,3.6,0,0,1-2.7-1,3.5,3.5,0,0,1-1-2.6V98.1a3.5,3.5,0,0,1,1-2.6,3.7,3.7,0,0,1,2.7-1.1Zm-.6,35.1a9.6,9.6,0,0,0,6.2-1.9,11.4,11.4,0,0,0,3.5-5.2,21.9,21.9,0,0,0,1.1-7,23.3,23.3,0,0,0-.6-5.3,15.4,15.4,0,0,0-2-4.5,9.7,9.7,0,0,0-3.3-3.1,9.6,9.6,0,0,0-4.9-1.2H63l.6-.5v29.4l-.4-.7Z"/><path d="M102.8,136.4a3.9,3.9,0,0,1-2.8-1,3.5,3.5,0,0,1-1-2.6V98.1a3.5,3.5,0,0,1,1-2.6,3.7,3.7,0,0,1,2.7-1.1h19.5a4,4,0,0,1,2.6,1,3.4,3.4,0,0,1,1,2.6,3,3,0,0,1-1,2.3,3.5,3.5,0,0,1-2.6,1H106l.5-.7v12.1l-.4-.8h13.4a3.5,3.5,0,0,1,2.6,1,3.3,3.3,0,0,1,1,2.5,3.3,3.3,0,0,1-1,2.4,3.5,3.5,0,0,1-2.6,1H106l.5-.5v14.5a3.6,3.6,0,0,1-1.1,2.6A3.7,3.7,0,0,1,102.8,136.4Z"/></svg>