<svg id="Layer_2" data-name="Layer 2" xmlns="http://www.w3.org/2000/svg" viewBox="0 0 182.1 200"><defs><style>.cls-1{fill:none;stroke:#1d1d1b;stroke-miterlimit:10;stroke-width:6px;}</style></defs><path class="cls-1" d="M39.7,74.1V23a20.1,20.1,0,0,1,20-20h58.4a24.5,24.5,0,0,1,17.3,7.2l36.5,36.4a24.5,24.5,0,0,1,7.2,17.3V177a20.1,20.1,0,0,1-20,20H59.7a20.1,20.1,0,0,1-20-20V156.8"/><path class="cls-1" d="M124.9,4V41.4A16.2,16.2,0,0,0,141,57.6h37.3"/><path d="M37.3,94.4a10,10,0,0,1,5.8,1.8,14.4,14.4,0,0,1,4.4,18.5,12.2,12.2,0,0,1-4.4,4.9,10,10,0,0,1-5.8,1.8H26.2l.6-1v12.4a4.1,4.1,0,0,1-.9,2.6,3.2,3.2,0,0,1-2.6,1,3.1,3.1,0,0,1-2.4-1,3.5,3.5,0,0,1-1-2.6V98.1a3.8,3.8,0,0,1,3.7-3.7Zm0,20.2a3.2,3.2,0,0,0,2.2-1,7.6,7.6,0,0,0,2.5-5.7,7.1,7.1,0,0,0-.7-3.2,6.9,6.9,0,0,0-1.8-2.4,3.7,3.7,0,0,0-2.2-1H26.1l.7-1v15.3l-.6-1Z"/><path d="M74.1,94.4a18.4,18.4,0,0,1,7.7,1.7,15.3,15.3,0,0,1,5.6,4.5,19.6,19.6,0,0,1,3.5,6.7,27.9,27.9,0,0,1,1.2,8.1A25.7,25.7,0,0,1,90,126a17.5,17.5,0,0,1-6.1,7.6,16.3,16.3,0,0,1-9.8,2.8H59.8a3.4,3.4,0,0,1-2.7-1,3.5,3.5,0,0,1-1-2.6V98.1a3.5,3.5,0,0,1,1-2.6,3.9,3.9,0,0,1,2.7-1.1Zm-.6,35.1a9.9,9.9,0,0,0,6.2-1.9,12.3,12.3,0,0,0,3.5-5.2,23.8,23.8,0,0,0,1.1-7,23.3,23.3,0,0,0-.6-5.3,15.1,15.1,0,0,0-2-4.5,9.8,9.8,0,0,0-3.3-3.1,10.4,10.4,0,0,0-4.9-1.2H63l.6-.5v29.4l-.4-.7Z"/><path d="M102.8,136.4a4.2,4.2,0,0,1-2.8-1,3.5,3.5,0,0,1-1-2.6V98.1a3.5,3.5,0,0,1,1-2.6,3.9,3.9,0,0,1,2.7-1.1h19.5a4,4,0,0,1,2.6,1,3.2,3.2,0,0,1,1,2.6,2.9,2.9,0,0,1-1,2.3,3.5,3.5,0,0,1-2.6,1H106l.5-.7v12.1l-.4-.8h13.4a3.5,3.5,0,0,1,2.6,1,3.5,3.5,0,0,1,0,4.9,3.5,3.5,0,0,1-2.6,1H106l.5-.5v14.5a3.6,3.6,0,0,1-1.1,2.6A3.5,3.5,0,0,1,102.8,136.4Z"/><rect class="cls-1" x="3" y="74.1" width="139.7" height="82.79" rx="20"/></svg>