<?xml version="1.0" encoding="utf-8"?>
<!-- Generator: Adobe Illustrator 26.0.0, SVG Export Plug-In . SVG Version: 6.00 Build 0)  -->
<svg version="1.1" id="Layer_2_00000111163804719430664060000017881853255149788077_"
	 xmlns="http://www.w3.org/2000/svg" xmlns:xlink="http://www.w3.org/1999/xlink" x="0px" y="0px" viewBox="0 0 182.1 200"
	 style="enable-background:new 0 0 182.1 200;" xml:space="preserve">
<style type="text/css">
	.st0{fill:none;stroke:#1D1D1B;stroke-width:6;stroke-miterlimit:10;}
</style>
<path class="st0" d="M39.7,74.1V23c0-11,9-20,20-20h58.4c6.5,0,12.7,2.6,17.3,7.2l36.5,36.4c4.6,4.6,7.2,10.8,7.2,17.3V177
	c0,11-9,20-20,20H59.7c-11,0-20-9-20-20v-20.2"/>
<path class="st0" d="M124.9,4v37.4c0,8.9,7.2,16.1,16.1,16.2h37.3"/>
<path d="M37.3,94.4c2.1,0,4.1,0.6,5.8,1.8c5.9,4.2,7.8,12.1,4.4,18.5c-1,2-2.5,3.7-4.4,4.9c-1.7,1.2-3.7,1.8-5.8,1.8H26.2l0.6-1
	v12.4c0,0.9-0.3,1.9-0.9,2.6c-0.7,0.7-1.6,1.1-2.6,1c-0.9,0-1.8-0.3-2.4-1c-0.7-0.7-1-1.6-1-2.6V98.1c0-1,0.4-1.9,1.1-2.6
	c0.7-0.7,1.6-1.1,2.6-1.1H37.3z M37.3,114.6c0.8,0,1.6-0.4,2.2-1c1.6-1.4,2.5-3.5,2.5-5.7c0-1.1-0.2-2.2-0.7-3.2
	c-0.4-0.9-1-1.7-1.8-2.4c-0.6-0.6-1.4-0.9-2.2-1H26.1l0.7-1v15.3l-0.6-1L37.3,114.6z"/>
<path d="M74.1,94.4c2.7,0,5.3,0.6,7.7,1.7c2.2,1,4.1,2.6,5.6,4.5c1.6,2,2.8,4.3,3.5,6.7c0.8,2.6,1.2,5.4,1.2,8.1
	c0.1,3.6-0.7,7.3-2.1,10.6c-1.3,3.1-3.4,5.7-6.1,7.6c-2.9,2-6.3,2.9-9.8,2.8H59.8c-1,0.1-2-0.3-2.7-1c-0.7-0.7-1-1.6-1-2.6V98.1
	c0-1,0.3-1.9,1-2.6c0.7-0.7,1.7-1.1,2.7-1.1H74.1z M73.5,129.5c2.2,0.1,4.4-0.6,6.2-1.9c1.6-1.4,2.8-3.2,3.5-5.2
	c0.7-2.3,1.1-4.6,1.1-7c0-1.8-0.2-3.6-0.6-5.3c-0.4-1.6-1.1-3.1-2-4.5c-0.8-1.3-2-2.3-3.3-3.1c-1.5-0.8-3.2-1.2-4.9-1.2H63l0.6-0.5
	v29.4l-0.4-0.7H73.5z"/>
<path d="M102.8,136.4c-1,0-2-0.3-2.8-1c-0.7-0.7-1-1.6-1-2.6V98.1c0-1,0.3-1.9,1-2.6c0.7-0.7,1.7-1.1,2.7-1.1h19.5
	c1,0,1.9,0.4,2.6,1c0.7,0.7,1.1,1.6,1,2.6c0,0.9-0.3,1.7-1,2.3c-0.7,0.7-1.6,1-2.6,1H106l0.5-0.7v12.1l-0.4-0.8h13.4
	c1,0,1.9,0.3,2.6,1c0.7,0.7,1,1.6,1,2.5c0,0.9-0.4,1.8-1,2.4c-0.7,0.7-1.6,1-2.6,1H106l0.5-0.5v14.5c0,1-0.4,1.9-1.1,2.6
	C104.7,136.1,103.8,136.4,102.8,136.4z"/>
<path class="st0" d="M122.7,156.9H23c-11,0-20-9-20-20V94.1c0-11,9-20,20-20h99.7c11,0,20,9,20,20v42.8
	C142.7,147.9,133.7,156.9,122.7,156.9z"/>
</svg>
