<svg id="Layer_1" data-name="Layer 1" xmlns="http://www.w3.org/2000/svg" viewBox="0 0 200 200"><defs><style>.cls-1,.cls-2{fill:none;stroke:#000;stroke-miterlimit:10;stroke-width:18px;}.cls-2{stroke-linecap:round;}</style></defs><path class="cls-1" d="M77.1,123a86.8,86.8,0,0,1,8,9.1c6.3,6.9,13.9,13.9,20.2,7,7.3-9.1,19.2-14.8,30.2-8.7,4.2,1.8,15.3,14.4,18.7,17.4a21.6,21.6,0,0,1,3.4,25.9C144,192,118.5,197.6,87,181.4h0a169.8,169.8,0,0,1-39.1-29.2h-.1A175.5,175.5,0,0,1,18.6,113h0C2.5,81.5,8,56,26.4,42.4a21.5,21.5,0,0,1,25.8,3.4c3,3.4,15.7,14.6,17.4,18.7,6.1,11,.4,22.9-8.6,30.2-7,6.3,0,13.9,6.9,20.2A79.4,79.4,0,0,1,77,123Z"/><path class="cls-2" d="M100,9.1A90.9,90.9,0,0,1,190.9,100"/><path class="cls-2" d="M100,49.7A50.3,50.3,0,0,1,150.3,100"/></svg>