<svg id="Layer_1" data-name="Layer 1" xmlns="http://www.w3.org/2000/svg" viewBox="0 0 97.8 169.2"><path d="M84.1,134.7c0-10.1,1.2-18.2,3.7-24.1S95.3,98,102.7,90.8s12-12.3,14-15.3a27,27,0,0,0,4.6-15c0-7.1-1.8-12.5-5.3-16.3s-8.7-5.6-15.5-5.6-11.8,1.8-15.8,5.5-6,8.6-6,14.9H51.1c.2-13.4,4.7-24.1,13.7-31.9s20.9-11.7,35.7-11.7,27.1,3.9,35.6,11.6,12.8,18.6,12.8,32.5c0,12.3-5.8,24.5-17.3,36.5l-14,13.8c-5,5.6-7.6,14-7.7,24.9ZM82.2,170q0-6.7,4.2-10.8c2.8-2.8,6.6-4.2,11.3-4.2s8.7,1.4,11.5,4.3a14.5,14.5,0,0,1,4.2,10.7,14.1,14.1,0,0,1-4.1,10.4c-2.7,2.8-6.6,4.2-11.6,4.2s-8.8-1.4-11.5-4.2A14.4,14.4,0,0,1,82.2,170Z" transform="translate(-51.1 -15.4)"/></svg>