<svg id="Layer_1" data-name="Layer 1" xmlns="http://www.w3.org/2000/svg" viewBox="0 0 200 200"><defs><style>.cls-1{fill-rule:evenodd;}</style></defs><path class="cls-1" d="M200,38a81.8,81.8,0,0,1-23.5,6.4,41.6,41.6,0,0,0,18-22.7,81.2,81.2,0,0,1-26,10,41.1,41.1,0,0,0-71,28.1,47.3,47.3,0,0,0,1,9.3A116.2,116.2,0,0,1,14,26.2,41.6,41.6,0,0,0,8.4,46.8,41.1,41.1,0,0,0,26.7,81,41.6,41.6,0,0,1,8.1,75.9v.5A41,41,0,0,0,41,116.6,42.6,42.6,0,0,1,30.2,118a40.4,40.4,0,0,1-7.8-.7,41.2,41.2,0,0,0,38.4,28.5,82.7,82.7,0,0,1-51,17.6,79.3,79.3,0,0,1-9.8-.6,115.9,115.9,0,0,0,62.9,18.4c75.4,0,116.7-62.5,116.7-116.7,0-1.8,0-3.5-.1-5.3A82.7,82.7,0,0,0,200,38Z"/></svg>