<svg xmlns="http://www.w3.org/2000/svg" viewBox="0 0 1031.3 1080"><path d="M0 0h1031.3v1080H0z" fill="#ffeebf"/><path d="M100 751.3h6v278.1h-6zm106.5 0h6v278.1h-6zm-53.3 0h6v278.1h-6zm159.7 0h6v278.1h-6zm-53.2 0h6v278.1h-6zm159.7 0h6v278.1h-6zm-53.2 0h6v278.1h-6zm159.6 0h6v278.1h-6zm-53.2 0h6v278.1h-6zm106.5 0h6v278.1h-6z" fill="#1f2c33"/><path d="M139.5 751.3h33.6v158.4h-33.6zm53.2 0h33.6v158.4h-33.6zm160.1 0h33.6v158.4h-33.6zm53.3 0h33.6v158.4h-33.6zm158.2 0h33.6v158.4h-33.6zM49.8 212.7h585.5v538.6H49.8z" fill="#1f2c33"/><circle fill="#ff6464" cx="319" cy="482" r="231.1"/><circle fill="#1f2c33" cx="319" cy="482" r="10.8"/><path d="M319 701.7a219.7 219.7 0 1 1 155.4-64.4A218.3 218.3 0 0 1 319 701.7Zm0-433.4c-117.8 0-213.6 95.9-213.6 213.7S201.2 695.7 319 695.7 532.7 599.8 532.7 482 436.9 268.3 319 268.3Z" fill="#1f2c33"/><path d="M319 553.5a71.5 71.5 0 1 1 71.5-71.5 71.6 71.6 0 0 1-71.5 71.5Zm0-137a65.5 65.5 0 1 0 65.5 65.5 65.6 65.6 0 0 0-65.5-65.5Z" fill="#1f2c33"/><path d="m560.9 657.2-5-3.4 42.2-61.3V251h6v343.4l-43.2 62.8z" fill="#ffeebf"/><path d="m574.5 616.5 15.9 11.2-25 35.3-15.8-11.2z" fill="#ffeebf"/><path d="M567 279.8h68.3v68.3H567zm68.3 471.5h346.2v278.1H635.3z" fill="#ff6464"/><path d="M677.7 777.1h33.6v226.6h-33.6z" fill="#a64141"/><path d="M677.7 797.7h33.6v64h-33.6z" fill="#ffeebf"/><path d="M677.7 826.7h33.6v6h-33.6z" fill="#1f2c33"/><path d="M753.6 777.1h33.6v226.6h-33.6z" fill="#a64141"/><path d="M753.6 858.4h33.6v64h-33.6z" fill="#ffeebf"/><path d="M753.6 887.4h33.6v6h-33.6z" fill="#1f2c33"/><path d="M829.6 777.1h33.6v226.6h-33.6z" fill="#a64141"/><path d="M829.6 900h33.6v64h-33.6z" fill="#ffeebf"/><path d="M829.6 928.9h33.6v6h-33.6z" fill="#1f2c33"/><path d="M905.6 777.1h33.6v226.6h-33.6z" fill="#a64141"/><path d="M905.6 809.4h33.6v64h-33.6z" fill="#ffeebf"/><path d="M905.6 838.4h33.6v6h-33.6z" fill="#1f2c33"/><circle fill="#ff6464" cx="694.5" cy="691.6" r="21.3" transform="rotate(-76.7 694.7 691.6)"/><path d="M691.5 670.3h6v21.4h-6z" fill="#1f2c33"/><circle fill="#ff6464" cx="770.4" cy="691.6" r="21.3"/><path d="m768.4 689.5 15-15 4.3 4.2-15 15z" fill="#1f2c33"/><circle fill="#ff6464" cx="846.4" cy="691.6" r="21.3" transform="rotate(-45 846.5 691.6)"/><path d="M843.4 691.6h6V713h-6z" fill="#1f2c33"/><circle fill="#ff6464" cx="922.3" cy="691.6" r="21.3" transform="rotate(-45 922.4 691.6)"/><path d="M901 688.6h21.3v6H901z" fill="#1f2c33"/><circle fill="#ff6464" cx="697.5" cy="261.8" r="10.8"/><circle fill="#ff6464" cx="919.3" cy="261.8" r="10.8"/><circle fill="#ff6464" cx="875" cy="261.8" r="10.8"/><circle fill="#ff6464" cx="830.6" cy="261.8" r="10.8"/><circle fill="#ff6464" cx="786.2" cy="261.8" r="10.8"/><circle fill="#ff6464" cx="741.9" cy="261.8" r="10.8"/><circle fill="#ff6464" cx="697.5" cy="312.3" r="10.8"/><circle fill="#ff6464" cx="919.3" cy="312.3" r="10.8"/><circle fill="#ff6464" cx="875" cy="312.3" r="10.8"/><circle fill="#ff6464" cx="830.6" cy="312.3" r="10.8"/><circle fill="#ff6464" cx="786.2" cy="312.3" r="10.8"/><circle fill="#ff6464" cx="741.9" cy="312.3" r="10.8"/><circle fill="#ff6464" cx="697.5" cy="362.9" r="10.8"/><circle fill="#ff6464" cx="919.3" cy="362.9" r="10.8"/><circle fill="#ff6464" cx="875" cy="362.9" r="10.8"/><circle fill="#ff6464" cx="830.6" cy="362.9" r="10.8"/><circle fill="#ff6464" cx="786.2" cy="362.9" r="10.8"/><circle fill="#ff6464" cx="741.9" cy="362.9" r="10.8"/><circle fill="#ff6464" cx="697.5" cy="413.4" r="10.8"/><circle fill="#ff6464" cx="919.3" cy="413.4" r="10.8"/><circle fill="#ff6464" cx="875" cy="413.4" r="10.8"/><circle fill="#ff6464" cx="830.6" cy="413.4" r="10.8"/><circle fill="#ff6464" cx="786.2" cy="413.4" r="10.8"/><circle fill="#ff6464" cx="741.9" cy="413.4" r="10.8"/><path d="M671.6 462.6h273.6v169.3H671.6z" fill="#1f2c33"/><path d="M872.6 628H744.2l12.6-40.3H860l12.6 40.3z" fill="#ff6464"/><path d="M671.6 619.3h273.6v12.6H671.6z" fill="#ff6464"/><path d="M876.5 576.3H740.3a36 36 0 0 1-36-36 36 36 0 0 1 36-36h136.2a36 36 0 0 1 36 36 36 36 0 0 1-36 36Z" fill="#ffeebf"/><circle fill="#ff6464" cx="742.6" cy="540.3" r="21.3" transform="rotate(-67.5 742.6 540.3)"/><circle fill="#ff6464" cx="874.2" cy="540.3" r="21.3" transform="rotate(-67.5 874.2 540.3)"/><path d="M49.8 54.1h931.7v158.6H49.8z" fill="#ff6464"/><path d="M86.2 163.5h33.6v30.1H86.2zm235.8 0h33.6v30.1H322zm58.9 0h33.6v30.1h-33.6zm59 0h33.6v30.1h-33.6zm59 0h33.6v30.1h-33.6zm412.7 0h33.6v30.1h-33.6zm-59 0h33.6v30.1h-33.6zm-589.6 0h33.6v30.1H263zm353.8 0h33.6v30.1h-33.6zm58.9 0h33.6v30.1h-33.6zm59 0h33.6v30.1h-33.6zm58.9 0h33.6v30.1h-33.6zm-235.8 0h33.6v30.1h-33.6zm-353.7 0h33.6v30.1h-33.6zm-59 0h33.6v30.1h-33.6zm-58.9-45.4h33.6v30.1H86.2zm235.8 0h33.6v30.1H322zm58.9 0h33.6v30.1h-33.6zm59 0h33.6v30.1h-33.6zm59 0h33.6v30.1h-33.6zm412.7 0h33.6v30.1h-33.6zm-59 0h33.6v30.1h-33.6zm-589.6 0h33.6v30.1H263zm353.8 0h33.6v30.1h-33.6zm58.9 0h33.6v30.1h-33.6zm59 0h33.6v30.1h-33.6zm58.9 0h33.6v30.1h-33.6zm-235.8 0h33.6v30.1h-33.6zm-353.7 0h33.6v30.1h-33.6zm-59 0h33.6v30.1h-33.6zM86.2 72.7h33.6v30.1H86.2zm235.8 0h33.6v30.1H322zm58.9 0h33.6v30.1h-33.6zm59 0h33.6v30.1h-33.6zm59 0h33.6v30.1h-33.6zm412.7 0h33.6v30.1h-33.6zm-59 0h33.6v30.1h-33.6zm-589.6 0h33.6v30.1H263zm353.8 0h33.6v30.1h-33.6zm58.9 0h33.6v30.1h-33.6zm59 0h33.6v30.1h-33.6zm58.9 0h33.6v30.1h-33.6zm-235.8 0h33.6v30.1h-33.6zm-353.7 0h33.6v30.1h-33.6zm-59 0h33.6v30.1h-33.6z" fill="#a64141"/></svg>