<svg xmlns="http://www.w3.org/2000/svg" viewBox="0 0 550 500"><defs><clipPath id="a"><path d="M103 90a22 22 0 0 0-9 15 15 15 0 0 0-1 3 21 21 0 0 0 4 12 22 22 0 0 0 30 6 22 22 0 0 0 9-11 17 17 0 0 0 1-4 21 21 0 0 0-1-9 14 14 0 0 0-1-3 24 24 0 0 0-2-3 22 22 0 0 0-30-6Z" fill="none"/></clipPath><clipPath id="b"><path d="M445 323a14 14 0 0 0-6 10 15 15 0 0 0 0 2 13 13 0 0 0 1 6 11 11 0 0 0 1 2 15 15 0 0 0 21 4 15 15 0 0 0 6-7 17 17 0 0 0 0-3 15 15 0 0 0 0-6 10 10 0 0 0-1-2 14 14 0 0 0-1-2 15 15 0 0 0-21-4Z" fill="none"/></clipPath><clipPath id="c"><path d="M445 140a27 27 0 0 0-18 10l-2 3a27 27 0 0 0-4 11 19 19 0 0 0 0 4 26 26 0 0 0 29 24 26 26 0 0 0 16-7 24 24 0 0 0 2-3 28 28 0 0 0 5-10l1-3a19 19 0 0 0 0-5 26 26 0 0 0-29-24Z" fill="none"/></clipPath><clipPath id="d"><path d="M60 360a11 11 0 0 0-2 8l1 2a11 11 0 0 0 2 3l2 1a11 11 0 0 0 15-2 10 10 0 0 0 2-7 9 9 0 0 0-1-1 9 9 0 0 0-1-5 4 4 0 0 0-1-1l-2-1a11 11 0 0 0-15 3Z" fill="none"/></clipPath></defs><path d="M0 0h550v500H0z" fill="#fff"/><g fill="#bdd9ff" opacity="1"><path d="M189 89a12 12 0 1 1-12-12 12 12 0 0 1 12 12Zm331 55a10 10 0 1 1-10-11 10 10 0 0 1 10 11Z"/><circle cx="307" cy="452" r="10" transform="rotate(-77 307 452)"/></g><path d="m367 430-2 4-9 21a2 2 0 0 0 2 3l35-17a2 2 0 0 0 1-2l-7-17Z" fill="#4268ff"/><path d="M356 455a1 1 0 0 0 1 0l35-17a2 2 0 0 0 1-1l1 2a2 2 0 0 1-1 2l-35 16a2 2 0 0 1-2-2Z" fill="#090909"/><path d="M361 453a1 1 0 0 1-1 0 1 1 0 0 1 0-1l33-14a1 1 0 0 1 1 0 1 1 0 0 1 0 1l-33 14Zm22-16h-1a4 4 0 0 1-3-2 4 4 0 0 1 1-5 4 4 0 0 1 6 1 3 3 0 0 1 0 3 4 4 0 0 1-1 2 4 4 0 0 1-2 1Zm0-7a3 3 0 0 0-2 1 3 3 0 0 0-1 2 3 3 0 0 0 0 2 3 3 0 0 0 2 1 3 3 0 0 0 2 0 3 3 0 0 0 1-2 2 2 0 0 0 0-2 3 3 0 0 0-2-1Zm-13 6h-1l-4-2s0-1 0 0l5 2Zm-2 4-4-2-1-1a1 1 0 0 1 1 0l4 2h1a1 1 0 0 1-1 1Zm-1 3-5-2a1 1 0 0 1 1-1l4 2a1 1 0 0 1 0 1Z" fill="#fff"/><path d="m429 389-38-47 10-23a41 41 0 0 0 2-22l-2-14-32 2-1 3-16-3-25 46a29 29 0 0 0-1 26l35 74a2 2 0 0 0 3 1l24-10a2 2 0 0 0 2-3l-21-50 38 44a2 2 0 0 0 3 0l19-21a2 2 0 0 0 0-3Z" fill="#090909"/><path d="m412 410 1 4 1 24a2 2 0 0 0 3 0l24-30a2 2 0 0 0 0-3l-15-11Z" fill="#4268ff"/><path d="M438 406a2 2 0 0 0 0-2l-12-10 14 12a2 2 0 0 1 1 2l-24 31a2 2 0 0 1-3-1v-1Z" fill="#090909"/><path d="m417 433 22-28a1 1 0 0 1 1 0l-23 28Zm11-24a3 3 0 0 1-2 0 4 4 0 0 1-2-2 4 4 0 0 1 0-3 4 4 0 0 1 7 3 4 4 0 0 1-2 2Zm0-6h-1a3 3 0 0 0-2 1 3 3 0 0 0 0 2 3 3 0 0 0 1 2 3 3 0 0 0 4-1 3 3 0 0 0-1-4 3 3 0 0 0-1 0Zm-15 12-1-1a1 1 0 0 1 1 0l4-1a1 1 0 0 1 1 1 1 1 0 0 1-1 0l-4 1Zm0 3a1 1 0 0 1-1 0l1-1h4l1 1h-5Zm0 4a1 1 0 0 1 0-1h5a1 1 0 0 1 0 1h-5Zm1-10c-2 0-5-4-6-4a2 2 0 0 1 4-3c0 1 3 5 2 6v1Zm-4-6a1 1 0 0 0-1 0 1 1 0 0 0 0 2 16 16 0 0 0 4 3 24 24 0 0 0-2-5 1 1 0 0 0-1 0Z" fill="#fff"/><path d="M409 415h-1a3 3 0 0 1-1-1 3 3 0 0 1 0-2 3 3 0 0 1 1-1h6c2 1 0 0 0 0l-5 4Zm-1-3a1 1 0 0 0 0 2 1 1 0 0 0 1 0 29 29 0 0 0 4-3 16 16 0 0 0-5 1Zm-39-42-10-12a22 22 0 0 1-5-20l12-41h1c0 1 0 0 0 0l-12 41a21 21 0 0 0 4 20l10 11v1Z" fill="#fff"/><path d="M407 210a29 29 0 0 0-11-8c-10-5-12-9-13-19a31 31 0 0 0-1-11c-3-8-10-12-18-11l-8 2v-1a11 11 0 0 0-16 5c-3 6 2 17 2 17 1-2 5-4 6-4 4-2 2-6 4-8a13 13 0 0 0 3-4 17 17 0 0 0 1 4c-2 4-1 9 3 13l4 3 3-2c3-1 5 3 4 6l-4 7a7 7 0 0 0 4 8l7 1c2 1 3 5 2 8l-2 8c0 5 4 11 9 12s11 1 16-2a18 18 0 0 0 8-10 17 17 0 0 0-3-14Z" fill="#090909"/><path d="M378 186a6 6 0 0 0-5-5h-3a16 16 0 0 1-15-13 13 13 0 0 1-3 5c-2 2-6 2-9 4v16a12 12 0 0 0 10 13l1 6c1 5 7 9 12 7 6-1 11-5 10-10l-5-16h2a6 6 0 0 0 5-6Z" fill="#ff9c9c"/><path d="M374 189h-1l-2-1v-1l2-2a1 1 0 0 1 1-1 1 1 0 0 1 0 1l-2 2 2 1v1Z" fill="#ff6969"/><path d="M343 184a1 1 0 1 0 2 0 1 1 0 0 0-1-1 1 1 0 0 0-1 1Zm9 0a1 1 0 0 0 1 1 1 1 0 0 0 1-1 1 1 0 0 0-1-1 1 1 0 0 0-1 1Z" fill="#090909"/><path d="M350 196c5 2 6-1 6-4a1 1 0 0 0-1 0l-5 3a1 1 0 0 0 0 1Z" fill="#fff"/><path d="M354 200a2 2 0 0 1 2 0 3 3 0 0 0-3-1v1Z" fill="#ff6969"/><path d="M358 179a3 3 0 0 1-1 0l-2-1h-1a2 2 0 0 1-1 0v-1a4 4 0 0 1 3-1 4 4 0 0 1 3 2l-1 1Zm-15-1a2 2 0 0 0 1 0h3v-1a3 3 0 0 0-2-1 2 2 0 0 0-2 2Z" fill="#090909"/><path d="M354 185a2 2 0 0 0-2 0" fill="#ff9c9c"/><path d="M352 186a1 1 0 0 1 0-1 2 2 0 0 1 3 0 1 1 0 0 1-1 0 1 1 0 0 0-1 1Z" fill="#ff6969"/><path d="M345 185a1 1 0 0 0-1 0" fill="#ff9c9c"/><path d="M344 186h-1v-1a1 1 0 0 1 2 0h-1v1Zm9 20s10 0 12-4 1 6-11 10Z" fill="#ff6969"/><path d="M348 184v2a2 2 0 0 1-2 2 1 1 0 0 0 0 1 3 3 0 0 0 3 3h1" fill="#ff9c9c"/><path d="M349 192a3 3 0 0 1-2-1 3 3 0 0 1-2-2 1 1 0 0 1 1-1 1 1 0 0 0 1-2v-3l1 1v2a2 2 0 0 1-2 3 2 2 0 0 0 3 2h1a1 1 0 0 1 0 1h-1Z" fill="#ff6969"/><path d="M374 195a3 3 0 0 1-1-1 3 3 0 0 1-1-1 3 3 0 0 1 0-2 3 3 0 0 1 2-1 3 3 0 0 1 2 0 3 3 0 0 1 1 2 3 3 0 0 1-1 2 3 3 0 0 1-2 1Zm0-4a1 1 0 0 0-1 0 1 1 0 0 0 0 1 2 2 0 0 0 0 2 2 2 0 0 0 1 0 1 1 0 0 0 1-1 1 1 0 0 0 1-1 2 2 0 0 0-1-1Z" fill="#fff"/><path d="m362 183 10-2a1 1 0 0 0 1-2 1 1 0 0 0-1-1l-10 3a1 1 0 0 0-1 1 1 1 0 0 0 1 1Z" fill="#08072b"/><path d="m344 189 3-1a10 10 0 0 1 4-1l1 1a8 8 0 0 0 7 0h1a5 5 0 0 0 2-5c0-3-2-6-5-5h-13c-3 0-5 3-5 5v1a6 6 0 0 0 2 4 3 3 0 0 0 3 1Z" fill="#161333"/><path d="m345 217-10 16-14-17-3-3a4 4 0 0 0 1-2v-4l1-6a1 1 0 0 0-1-1 2 2 0 0 0-2 1l-2 5-9-15a1 1 0 0 0-2 0 3 3 0 0 0 0 3l4 9-5 5a6 6 0 0 0-1 7l7 11 12 30c5 13 23 14 30 2l10-17Zm-11 15 6 7" fill="#ff9c9c"/><path d="m340 240-1-1-5-6a1 1 0 0 1 0-1h1l5 7Z" fill="#ff6969"/><path d="m307 202 3 10a2 2 0 0 1-1 2v1a1 1 0 0 1-1-1l-4-9a2 2 0 0 1 1-2Z" fill="#ff9c9c"/><path d="M309 215h-1l-4-9a2 2 0 0 1 1-3l2-1 4 10a3 3 0 0 1-1 3h-1Zm-2-12-2 1a1 1 0 0 0 0 1l3 9h1a1 1 0 0 0 1-2Z" fill="#ff6969"/><path d="m304 205 3 8a2 2 0 0 1-1 2 1 1 0 0 1-1 0l-4-8a2 2 0 0 1 1-2Z" fill="#ff9c9c"/><path d="M305 216a1 1 0 0 1-1 0l-3-8a2 2 0 0 1 1-3l2-1v1l4 8a2 2 0 0 1-2 3Zm-1-11-2 1a1 1 0 0 0 0 1l3 8h1a1 1 0 0 0 0-2Z" fill="#ff6969"/><path d="m301 206 3 8a2 2 0 0 1-1 2 1 1 0 0 1-1 0l-3-7a1 1 0 0 1 1-2Z" fill="#ff9c9c"/><path d="M303 217h-1a1 1 0 0 1 0-1l-3-7a2 2 0 0 1 0-2l3-1 3 8a2 2 0 0 1-1 2l-1 1Zm-2-10-1 1a1 1 0 0 0 0 1l3 7a1 1 0 0 0 1-2Z" fill="#ff6969"/><path d="m407 232-6-13a19 19 0 0 0-18-12l-12 2h-3v1l-17 3a17 17 0 0 0-10 6l-6 9a2 2 0 0 0 0 3l11 14-4 39c-1 2-2 11 0 10l60-6a3 3 0 0 0 2-4l-9-45 10-3a3 3 0 0 0 2-4Z" fill="#5353b8"/><path d="M380 248a1 1 0 0 1 0-1l-1-5h-2a2 2 0 0 1-2 0 2 2 0 0 1-1-2l-1-14 1-1a1 1 0 0 1 1 1v14a1 1 0 0 0 1 1h3l2 6-1 1Zm-34 5a1 1 0 0 1 0-1l2-20a1 1 0 0 1 1 0l-3 20a1 1 0 0 1 0 1Z" fill="#fff"/><path d="m410 244-5-8-26 5 1 4-28 5a15 15 0 0 0-3-1l-12-2h-1v2a13 13 0 0 0 3 3l-3 1c-3 0-8 1-6 5a2 2 0 0 0 2 1c-1 0-2 1-1 3s3 1 4 0a2 2 0 0 0-1 2c1 2 3 2 4 1-1 1 1 3 3 2l14-3 39 5a17 17 0 0 0 16-25Z" fill="#ff9c9c"/><path d="M332 259h-1l1-1a28 28 0 0 1 4-1 1 1 0 0 1 1 0 1 1 0 0 1-1 1l-4 1Zm3 4a1 1 0 0 1-1 0 1 1 0 0 1 0-1l4-1v1l-3 1Zm3 3a1 1 0 0 1 0-1l2-1v1l-2 1Zm41-20a1 1 0 0 1 0-1l9-1v1l-9 1Z" fill="#ff6969"/><path d="M336 248v-1h1a60 60 0 0 1 9 2s0-1 0-1a79 79 0 0 0-10-2h-1a1 1 0 0 0 0 1 1 1 0 0 0 0 1 7 7 0 0 0 1 1v-1Zm0 5 3-1-1-1h-4c-2 1-7 2-5 6a2 2 0 0 0 1 1c-1-3 3-4 6-5Z" fill="#ff6969" opacity="1"/><path d="m419 290 17 4a111 111 0 0 1 15 7 35 35 0 0 1 8 5 11 11 0 0 1 2 4 6 6 0 0 1 1 3 7 7 0 0 1-1 3 11 11 0 0 1-4 4l-4 1a46 46 0 0 1-9 2 128 128 0 0 1-17 2l-18-1a326 326 0 0 1-34-4 320 320 0 0 1-33-7l-17-6a118 118 0 0 1-16-7 50 50 0 0 1-7-4l-4-3a14 14 0 0 1-3-4 7 7 0 0 1 0-3 6 6 0 0 1 0-3 10 10 0 0 1 4-4 33 33 0 0 1 9-3 102 102 0 0 1 17-1l17 1a1 1 0 0 1 1 0 1 1 0 0 1-1 1h-17a102 102 0 0 0-17 3 28 28 0 0 0-7 2 6 6 0 0 0-2 3 2 2 0 0 0 0 2 10 10 0 0 0 2 3l3 2a54 54 0 0 0 7 4 349 349 0 0 0 132 23 43 43 0 0 0 9-2 22 22 0 0 0 3-1 8 8 0 0 0 3-2 3 3 0 0 0 0-3 9 9 0 0 0-2-2 32 32 0 0 0-6-5 112 112 0 0 0-15-8l-16-6v-1 1Z" fill="#4268ff" opacity="1"/><path d="m403 276 19-4a147 147 0 0 1 20-1 69 69 0 0 1 10 1 32 32 0 0 1 5 2 16 16 0 0 1 5 2 6 6 0 0 1 1 2 11 11 0 0 1 1 1 14 14 0 0 1 0 2v2a12 12 0 0 1-2 5 17 17 0 0 1-2 2l-2 2a41 41 0 0 1-4 3 112 112 0 0 1-17 11l-18 8a363 363 0 0 1-38 12 394 394 0 0 1-39 8l-20 2a148 148 0 0 1-20 1 87 87 0 0 1-10-1 32 32 0 0 1-5-1 18 18 0 0 1-5-3 13 13 0 0 1-2-2 7 7 0 0 1-1-1v-2a7 7 0 0 1 0-3 11 11 0 0 1 1-3 32 32 0 0 1 8-7 95 95 0 0 1 8-6l9-4 9-4 10-3a1 1 0 0 1 0 1l-9 4-9 4a119 119 0 0 0-16 10 30 30 0 0 0-6 7 14 14 0 0 0-1 2 9 9 0 0 0 0 1 4 4 0 0 0 2 3 21 21 0 0 0 8 2 75 75 0 0 0 10 1 231 231 0 0 0 38-4l38-8a375 375 0 0 0 38-12 188 188 0 0 0 18-7 110 110 0 0 0 17-9l3-3 2-2 1-1a9 9 0 0 0 2-4 3 3 0 0 0-1-3 10 10 0 0 0-3-2 28 28 0 0 0-4-1 75 75 0 0 0-10-2 159 159 0 0 0-19 0l-20 2Zm-284 43h-4l-23 4a2 2 0 0 1-2-2l24-31a2 2 0 0 1 3 0l14 11Z" fill="#4268ff"/><path d="M116 292a2 2 0 0 1 3 0l12 9-14-11a2 2 0 0 0-3 0l-24 31a2 2 0 0 0 2 2 1 1 0 0 1 1 0Z" fill="#090909"/><path d="M95 320a1 1 0 0 1 0-1l22-28a1 1 0 0 1 1-1v1l-22 29h-1Zm25-14h-1a4 4 0 0 1-3-4 4 4 0 0 1 1-2 4 4 0 0 1 5 0 4 4 0 0 1 0 5 4 4 0 0 1-2 1Zm0-6a3 3 0 0 0-2 1 3 3 0 0 0-1 1 3 3 0 0 0 0 2 2 2 0 0 0 2 1 2 2 0 0 0 2-1 3 3 0 0 0-2-4Zm-5 20-1-1-1-4 1-1 1 5v1Zm-4 0-1-5h1l1 5h-1Zm-3 1-1-1-1-4a1 1 0 0 1 1-1v1l1 4v1Z" fill="#fff"/><path d="m220 293-10-34-62-15-12 50-7-1a2 2 0 0 0-2 1l-14 31a2 2 0 0 0 2 3h13l-9 42a1 1 0 0 0 0 1l29 9a2 2 0 0 0 3-2l16-51h30a26 26 0 0 0 23-34Zm-44 3 3-7 5 8Z" fill="#090909"/><path d="M165 334h-1l22-68h1l-22 68Z" fill="#fff"/><path d="M188 305v-1l-10-14a1 1 0 0 1 1-1l10 15h-1v1Z" fill="#fff"/><path d="m143 378 2 3 12 21a2 2 0 0 1-2 2l-37-12a2 2 0 0 1-1-3l6-17Z" fill="#4268ff"/><path d="m157 402-1-1a2 2 0 0 1-1 0l-36-12a2 2 0 0 1-1-1l-1 1a2 2 0 0 0 1 3l37 12a2 2 0 0 0 2-2Z" fill="#090909"/><path d="M152 400h-1l-34-11v-1h1l34 11v1Zm-24-14a4 4 0 0 1-2 0 4 4 0 0 1-1-5 4 4 0 0 1 2-2 4 4 0 0 1 3 0 4 4 0 0 1 1 5 4 4 0 0 1-2 2Zm0-6a3 3 0 0 0-1 5 3 3 0 0 0 2 0 3 3 0 0 0 1-1 3 3 0 0 0-2-4Zm13 4a1 1 0 0 1 0-1l4-2a1 1 0 0 1 1 0 1 1 0 0 1-1 1l-4 2Zm2 4-1-1h1l4-3v1c0 1 0 0 0 0l-4 3Zm1 3v-1c0-1 0 0 0 0l4-3a1 1 0 0 1 1 1l-4 3Zm-2-11-1-6a2 2 0 0 1 1-2 2 2 0 0 1 2 0 2 2 0 0 1 1 1 2 2 0 0 1 1 1l-3 6Zm1-1Zm-1-5a25 25 0 0 0 1 5 23 23 0 0 0 2-5 2 2 0 0 0-1-1 1 1 0 0 0-2 1Z" fill="#fff"/><path d="m147 381-5-1v-1l6-2a2 2 0 0 1 2 1 2 2 0 0 1-2 3Zm-4-2a21 21 0 0 0 5 1 1 1 0 0 0 1-2 1 1 0 0 0-1-1 16 16 0 0 0-5 3Zm5-2Z" fill="#fff"/><path d="m178 154 1 4 1-4h-2Z" fill="#090909"/><path d="M207 132c-2-6-9-4-9-4-7 4-11 1-11 1v2a36 36 0 0 1-1 11l-9 1a6 6 0 0 0-4 1 7 7 0 0 0-1 5 6 6 0 0 0 6 5h2l-2 18c0 6 5 9 11 10 6 0 11-4 12-10v-7a13 13 0 0 0 9-14Z" fill="#ff9c9c"/><path d="M186 142a36 36 0 0 0 1-11v-2s5 3 11-1c0 0 7-2 9 4 1-2 8-13-1-16s-11 3-11 3-3-7-12-3-5 9-5 9-8 4-8 10l3 9a6 6 0 0 1 4-2Z" fill="#090909"/><path d="M177 151v-1c-1 0-1 0 0 0l1-1-2-2a1 1 0 0 1 1-1l2 2v1l-2 2Z" fill="#ff6969"/><path d="M208 142a1 1 0 1 1-2-1 1 1 0 0 1 2 1Zm-10 1a1 1 0 0 1-1 1 1 1 0 0 1-1-1 1 1 0 0 1 1-1 1 1 0 0 1 1 1Z" fill="#090909"/><path d="M200 159h-1a2 2 0 0 0-2 1v-1a3 3 0 0 1 3-1v1Z" fill="#ff6969"/><path d="M192 137a3 3 0 0 0 1-1h2l1-1a3 3 0 0 0 1 0v-1a4 4 0 0 0-3-1 4 4 0 0 0-3 2l1 2Zm16-2a4 4 0 0 1-1 0h-3a2 2 0 0 1 0-1c-1 0-1 0 0 0a3 3 0 0 1 2-1 2 2 0 0 1 2 1v1Z" fill="#090909"/><path d="M196 145a2 2 0 0 1 2-1" fill="#ff9c9c"/><path d="M196 145a1 1 0 0 1 0-1 2 2 0 0 1 2 0l1 1h-1a1 1 0 0 0-2 0Z" fill="#ff6969"/><path d="M206 143a1 1 0 0 1 1 0" fill="#ff9c9c"/><path d="M207 144a1 1 0 0 0-1 0 1 1 0 0 1 0-1 2 2 0 0 1 2 0 1 1 0 0 1 0 1 1 1 0 0 1-1 0Zm-6 22s-11 1-13-3 0 7 13 9Z" fill="#ff6969"/><path d="M203 142v2a2 2 0 0 0 2 2 1 1 0 0 1 1 1 3 3 0 0 1-3 3h-1" fill="#ff9c9c"/><path d="M202 150a1 1 0 0 1 0-1h1a2 2 0 0 0 3-2h-1a2 2 0 0 1-2-3v-2a1 1 0 0 1 0-1 1 1 0 0 1 1 1v2a1 1 0 0 0 1 2 2 2 0 0 1 1 0 1 1 0 0 1 1 1 4 4 0 0 1-1 3 4 4 0 0 1-3 1Z" fill="#ff6969"/><path d="M200 153a2 2 0 0 1-2 1 2 2 0 0 1-2-1 2 2 0 0 1 2-2 2 2 0 0 1 2 2Z" fill="#ff9c9c"/><path d="M198 155a2 2 0 0 1-2-1 3 3 0 0 1 0-1 2 2 0 0 1 1-2 2 2 0 0 1 1-1 2 2 0 1 1 0 5Zm0-4a2 2 0 0 0-1 1 1 1 0 0 0 0 1 2 2 0 0 0 0 1 1 1 0 0 0 1 0 1 1 0 0 0 1 0 1 1 0 0 0 1-1 2 2 0 0 0-2-2Z" fill="#ff6969"/><path d="M209 146a24 24 0 0 0-3-1 9 9 0 0 0-4 1l-1 1a9 9 0 0 1-9 1l-1-1a6 6 0 0 1-2-4v-1c-1-3 1-6 4-6l15-2a5 5 0 0 1 6 5v1a7 7 0 0 1-1 5 3 3 0 0 1-4 1Z" fill="#161333"/><path d="m188 143-11-1a1 1 0 0 1-1-2 2 2 0 0 1 1-1l11 1a1 1 0 0 1 1 2 1 1 0 0 1-1 1Z" fill="#08072b"/><path d="M260 135a6 6 0 0 0 0-8l-5-5 5-9a3 3 0 0 0-1-4 1 1 0 0 0-2 1l-10 14h-1l-1-4a3 3 0 0 0-2-2 1 1 0 0 0-2 1l1 7v4a3 3 0 0 0 1 2l-30 35c-11 12 6 24 19 17Z" fill="#ff9c9c"/><path d="m256 121-5 10a2 2 0 0 0 1 3h1a1 1 0 0 0 1 0l4-10a2 2 0 0 0 0-2Z" fill="#ff9c9c"/><path d="m253 135-1-1a3 3 0 0 1-1-3l4-11 3 2a3 3 0 0 1 1 3l-5 9a1 1 0 0 1-1 1Zm3-13-4 9a2 2 0 0 0 0 2l1 1 5-10a1 1 0 0 0-1-1Z" fill="#ff6969"/><path d="m259 124-4 9a2 2 0 0 0 1 2 1 1 0 0 0 1 0l4-8a1 1 0 0 0 0-2Z" fill="#ff9c9c"/><path d="m256 136-1-1a2 2 0 0 1-1-2l4-10 3 2a2 2 0 0 1 0 2l-4 8a1 1 0 0 1 0 1Zm3-12-4 9a2 2 0 0 0 1 2h1l4-8a1 1 0 0 0-1-2Z" fill="#ff6969"/><path d="m261 126-3 8a2 2 0 0 0 0 2h1a1 1 0 0 0 1 0l3-7a2 2 0 0 0 0-2Z" fill="#ff9c9c"/><path d="m259 137-1-1a2 2 0 0 1-1-2l4-9 2 1a2 2 0 0 1 1 3l-4 7a1 1 0 0 1-1 1Zm2-11-3 8a1 1 0 0 0 1 2l4-8a1 1 0 0 0 0-1Z" fill="#ff6969"/><path d="m213 162-10 12-1-1-18-4h-1a20 20 0 0 0-11 0 21 21 0 0 0-20 13l-6 15a3 3 0 0 0 2 4l6 2-10 48 67 8c2 0 1-9 0-11l3-36 22-29a2 2 0 0 0-1-3l-20-18a1 1 0 0 0-2 0Z" fill="#4268ff"/><path d="m178 270-5-12a18 18 0 0 0-3-4l-2-6-3-23 6-16-22-7-5 12a22 22 0 0 0 0 15l8 24 2 6 1 13c0 2 2 4 3 2 0 2 0 4 2 5a2 2 0 0 0 3-2c-1 2-1 3 1 4s3-1 3-2l2 2c4 1 4-4 4-8v-4a14 14 0 0 0 4 3h1a1 1 0 0 0 0-1 4 4 0 0 0 0-1Z" fill="#ff9c9c"/><path d="M167 280v-1a46 46 0 0 0 0-5 1 1 0 0 1 1 0 42 42 0 0 1 0 5 1 1 0 0 1-1 1Zm-4-2a1 1 0 0 1-1 0v-4a1 1 0 0 1 1-1 1 1 0 0 1 0 1v3a1 1 0 0 1 0 1Zm-5-3a1 1 0 0 1 0-1v-2h1v2a1 1 0 0 1-1 1Z" fill="#ff6969"/><path d="M174 210h-1l-2-1v-1l2 1a2 2 0 0 0 3-1l7-12a1 1 0 0 1 0-1v1l-6 12a4 4 0 0 1-3 2Zm39 17a1 1 0 0 1-1-1l3-24a1 1 0 0 1 1 1l-3 23a1 1 0 0 1 0 1Z" fill="#fff"/><path d="m225 234 14 11a111 111 0 0 1 12 13 42 42 0 0 1 5 8 17 17 0 0 1 1 4 7 7 0 0 1-1 6 8 8 0 0 1-2 2 11 11 0 0 1-3 0 16 16 0 0 1-5 1 44 44 0 0 1-9-2 117 117 0 0 1-16-5l-16-8a349 349 0 0 1-30-17 351 351 0 0 1-60-51 54 54 0 0 1-5-8 29 29 0 0 1-2-4 10 10 0 0 1 0-5 6 6 0 0 1 1-3 7 7 0 0 1 2-1 15 15 0 0 1 5-1 38 38 0 0 1 9 1 68 68 0 0 1 9 3 161 161 0 0 1 15 7h1l-1 1-8-4-8-2a78 78 0 0 0-8-3 29 29 0 0 0-9 0 9 9 0 0 0-3 0 3 3 0 0 0-2 3 7 7 0 0 0 0 3 28 28 0 0 0 2 4 77 77 0 0 0 10 13 241 241 0 0 0 26 23 421 421 0 0 0 73 45 140 140 0 0 0 16 5 40 40 0 0 0 9 2 17 17 0 0 0 3 0 5 5 0 0 0 3-1 4 4 0 0 0 1-3 10 10 0 0 0-1-4 41 41 0 0 0-4-7 124 124 0 0 0-11-13c-4-5-8-9-13-12v-1Z" fill="#957af6" opacity="1"/><path d="m216 214 10 2 10 3a178 178 0 0 1 20 8 77 77 0 0 1 9 5 28 28 0 0 1 4 3 16 16 0 0 1 4 5 11 11 0 0 1 0 2 7 7 0 0 1 0 2 7 7 0 0 1 0 2 13 13 0 0 1-1 1 13 13 0 0 1-5 5 21 21 0 0 1-2 1 20 20 0 0 1-3 1 53 53 0 0 1-5 1 125 125 0 0 1-21 3l-21-1a381 381 0 0 1-42-4 411 411 0 0 1-40-9c-7-1-14-3-20-6a174 174 0 0 1-20-8 97 97 0 0 1-9-5l-4-4a23 23 0 0 1-4-4l-1-2a11 11 0 0 1-1-1 7 7 0 0 1 1-4 8 8 0 0 1 1-3 13 13 0 0 1 3-3 22 22 0 0 1 5-2 51 51 0 0 1 5-1 75 75 0 0 1 11-2h10a239 239 0 0 1 22 2 1 1 0 0 1-1 0l-21 1a110 110 0 0 0-19 3 27 27 0 0 0-9 4 6 6 0 0 0-2 1 3 3 0 0 0 0 1v1c0 1 0 0 0 0v1a6 6 0 0 1 0 1 17 17 0 0 0 3 3l4 3a92 92 0 0 0 9 4 229 229 0 0 0 39 13 420 420 0 0 0 101 14 147 147 0 0 0 20-2l4-1h3l2-1a9 9 0 0 0 3-3 6 6 0 0 0 0-1v-1a10 10 0 0 0-2-4 22 22 0 0 0-4-3 61 61 0 0 0-8-5 149 149 0 0 0-19-8l-9-4-10-3v-1Z" fill="#957af6" opacity="1"/><circle fill="#957af6" cx="286" cy="84" r="41" transform="rotate(-77 286 84)"/><path d="M345 117a32 32 0 0 1-5 0c-5 0-13-2-23-5l-1-1 4-5c19 6 26 6 28 5-1-4-19-18-57-34s-60-20-64-19c0 2 5 7 19 16l-1 6h-1c-26-16-24-22-23-24s5-6 25-1a304 304 0 0 1 91 39c18 11 18 16 17 20s-5 3-9 3Z" fill="#4268ff"/><g clip-path="url(#a)"><path d="M103 90a22 22 0 0 0-9 15 15 15 0 0 0-1 3 21 21 0 0 0 4 12 22 22 0 0 0 30 6 22 22 0 0 0 9-11 17 17 0 0 0 1-4 21 21 0 0 0-1-9 14 14 0 0 0-1-3 24 24 0 0 0-2-3 22 22 0 0 0-30-6Z" fill="#4268ff"/></g><g clip-path="url(#b)"><path d="M445 323a14 14 0 0 0-6 10 15 15 0 0 0 0 2 13 13 0 0 0 1 6 11 11 0 0 0 1 2 15 15 0 0 0 21 4 15 15 0 0 0 6-7 17 17 0 0 0 0-3 15 15 0 0 0 0-6 10 10 0 0 0-1-2 14 14 0 0 0-1-2 15 15 0 0 0-21-4Z" fill="#957af6"/></g><g clip-path="url(#c)"><path d="M445 140a27 27 0 0 0-18 10l-2 3a27 27 0 0 0-4 11 19 19 0 0 0 0 4 26 26 0 0 0 29 24 26 26 0 0 0 16-7 24 24 0 0 0 2-3 28 28 0 0 0 5-10l1-3a19 19 0 0 0 0-5 26 26 0 0 0-29-24Z" fill="#4268ff"/></g><g clip-path="url(#d)"><path d="M60 360a11 11 0 0 0-2 8l1 2a11 11 0 0 0 2 3l2 1a11 11 0 0 0 15-2 10 10 0 0 0 2-7 9 9 0 0 0-1-1 9 9 0 0 0-1-5 4 4 0 0 0-1-1l-2-1a11 11 0 0 0-15 3Z" fill="#4268ff"/></g><path d="m69 137 5 2-5 3-2 5-3-5-5-2 5-3 2-5 3 5z" fill="#957af6"/><path d="m308 170 10 5-9 6-5 11-6-10-10-5 9-6 5-10 6 9z" fill="#fff"/><path d="m424 79 5 2-5 3-2 5-3-5-5-2 4-3 3-5 3 5z" fill="#957af6"/><path d="m248 325 5 2-5 3-3 6-3-5-5-2 5-3 3-6 3 5z" fill="#fff"/><path d="m491 266 5 2-5 3-2 5-3-5-5-2 5-3 2-5 3 5z" fill="#bdd9ff"/><path d="m459 413 5 2-5 3-3 5-2-5-5-2 4-3 3-5 3 5z" fill="#957af6"/><circle fill="#4268ff" cx="231" cy="380" r="22" transform="rotate(-13 231 379)"/><path d="M200 398c-4 0-5-1-6-2-1-3 1-7 9-12a162 162 0 0 1 24-12 170 170 0 0 1 25-9c9-2 14-2 15 1s0 6-12 13l-2 2-1-6h1l9-7h-1c-4 0-15 3-32 10s-27 14-30 17l12-2h1l4 4-4 1-12 2Z" fill="#957af6"/><path d="M382 113a2 2 0 0 1-1 2 2 2 0 0 1-2-2 2 2 0 0 1 2-1 2 2 0 0 1 1 1Zm79 122a2 2 0 0 1-2 2 2 2 0 1 1 0-3 2 2 0 0 1 2 1Z" fill="#fff"/><path d="M177 366a2 2 0 0 1-2 1 2 2 0 0 1-1-1 2 2 0 0 1 1-2 2 2 0 0 1 2 2Z" fill="#957af6"/><circle fill="#957af6" cx="66" cy="446" r="2"/><path d="M87 274a2 2 0 0 1-3 0 2 2 0 1 1 3 0Z" fill="#fff"/><path d="M247 176a2 2 0 0 1-1 2 2 2 0 0 1 0-3 2 2 0 0 1 1 1Zm8-143a4 4 0 0 1-4 4 4 4 0 0 1 0-8 4 4 0 0 1 4 4Zm-50 383a4 4 0 0 1-9 0 4 4 0 1 1 8 0Zm285-221a4 4 0 1 1-4-5 4 4 0 0 1 4 5ZM297 342a2 2 0 0 1-1 1 2 2 0 0 1-2-1 2 2 0 0 1 2-2 2 2 0 0 1 1 2Z" fill="#bdd9ff"/><circle fill="#957af6" cx="236" cy="467" r="2"/><path d="M371 31a2 2 0 0 1-2 2 2 2 0 0 1-1-2 2 2 0 0 1 1-1 2 2 0 0 1 2 1ZM262 203a2 2 0 0 1-2 1 2 2 0 0 1-1-1 2 2 0 0 1 1-2 2 2 0 0 1 2 2Zm66-55a2 2 0 0 1-2 2 2 2 0 0 1-1-2 2 2 0 0 1 1-1 2 2 0 0 1 2 1ZM48 190a2 2 0 1 1-1-1 2 2 0 0 1 1 1Z" fill="#4268ff"/></svg>