<?xml version="1.0" encoding="utf-8"?>
<!-- Generator: Adobe Illustrator 26.0.0, SVG Export Plug-In . SVG Version: 6.00 Build 0)  -->
<svg version="1.1" id="Layer_1" xmlns="http://www.w3.org/2000/svg" xmlns:xlink="http://www.w3.org/1999/xlink" x="0px" y="0px"
	 viewBox="0 0 1920 1080" style="enable-background:new 0 0 1920 1080;" xml:space="preserve">
<style type="text/css">
	.st0{fill:#141819;}
</style>
<path class="st0" d="M841,242c-14.5,31.1-33.8,59.7-57,85l-13,16l-13,17c-5,4-8,10-12,15l-11,15l-24,29c-34,39.6-62,84.1-83,132
	l-8,26l-6,29c-8.2,33.8-16.9,67.4-26,101c-19,61.3-46.6,119.5-82,173l-17,23c-16,20-37,38-56,55s-41,34-62,50c-19,15-41,26-60,42
	c-11,9-21,18-31,29l-1,1h532c-20.5-100.1-22.9-203.1-7-304c10.3-46,26.8-90.4,49-132l23-34l49-66l1-2l52-64c34-40,72-77,108-115
	c18-20,35-40,49-62l22-36c18-30,33-62,46-95c23-58.3,49.7-115.1,80-170H824l2,6c8,28,17,54,23,82c4,21,7,43,9,65c1,12-1,24-2,36
	C854,208,849,226,841,242z"/>
<path class="st0" d="M1193,949c43-60,88-120,122-185c46-89.7,78.4-185.7,96-285c5-28,9-56,10-84s1-57-1-86l-7-89c-3-38-6-75-5-113
	s6-72,16-107h-107l-4,7c-19,32-37,64-54,97s-34,64-49,97c-8,17-14,36-24,52c-8,13-14,27-23,40c-22,36-50,68-81,95
	c-17,14.2-32.8,30-47,47l-48,47c-10,9-18,19-26,29c-11,15-24,30-37,44l-18,21l-41,56c-17.6,27.6-31.1,57.5-40,89
	c-11.8,39.9-17.8,81.4-18,123c-1,79,14,158,31,236h261L1193,949z M1769,167c-13,50-21,105-23,157s-15,108-41,152
	c-28,47-61,89-95,131c-45.3,55.6-81.4,118-107,185c-17,53-11,110-2,164l25,124h88l12-34c17.4-53.3,29.4-108.3,36-164l6-69
	c4-26,13-51,24-74c13-26,29-49,44-72c40.9-61.6,86.7-119.8,137-174c12-13,28-36,47-43V0h-82C1807,51,1785,110,1769,167z"/>
<path class="st0" d="M1483,967c-5-50-8-98,3-149c19-90,68-177,125-249c36.2-44.1,63.7-94.6,81-149c14-49,15-100,20-151
	s19-101,35-150c14-41,32-81,53-119h-348c-26,66-30,141-27,213c1,51,6,101,5,152c0,24-1,47-3,70c-4,40-14,79-23,117
	c-7,36-16,70-27,105c-11,38-25,77-42,113c-23,51-58,96-90,141l-101,139l-23,30h376C1491,1043,1486,1005,1483,967z M1857,909
	c16-11,33-18,51-25l12-2V487l-11,9l-24,21c-30,28-60,57-87,88c-35,39-66,82-87,130c-11,25-21,51-26,78s-6,55-7,83l-2,36
	c-5.7,50-15.4,99.5-29,148h136c1.3-28.7,5.3-57.1,12-85C1805.8,960.4,1827.6,930.2,1857,909z M26,178l21-35l14-29
	C78.6,77.9,93.3,40.4,105,2V0H0v219L26,178z"/>
<path class="st0" d="M1875,927c-12,5-22,15-31,25c-19,20-31,45-38,71c-5,19-7,38-9,57h123V910C1904,913,1889,920,1875,927z
	 M263,1078c23.8-29.8,51.8-56.1,83-78l34-25l29-27c40.4-36.2,75.4-77.9,104-124c24.2-50,45.3-101.4,63-154c15-46,25-94,46-138
	c7-15,16-29,25-42l13-19l15-21c17-21,37-40,54-62l33-43c11-14,24-29,34-44c13-18,23-36,31-56c8-17,13-35,14-53c2-19,1-38-3-57
	c-5-28-12-56-22-82c-6-18-12-35-20-52l-1-1H549l-1,46l-4,94c-4.4,60.9-24,119.6-57,171l-3,6c-7,14-14,29-23,42l-11,19
	c-11,17-26,30-39,45l-38,39l-19,19l-33,32c-7,7-13,15-19,24c-14,20-23,43-33,65l-19,45l-17,36c-6,11-14,21-23,31
	c-25.9,28.1-53.6,54.5-83,79l-1,1l-31,29l-46,41c-17,15-34,30-49,47v169h261L263,1078z"/>
<path class="st0" d="M344,21c-30.7,33.6-58.2,70.1-82,109l-15,23l-2,3c-7,13-15,26-21,40l-18,39l-17,38c-11,25-21,52-29,78l-2,9
	l-11,37l-11,35c-8,31-18,60-37,86c-14.1,20.6-31.7,38.5-52,53l-20,14l-5,3L0,602v305c20-22,41-43,63-63l34-37l38-39l43-44
	c23-24,41-54,51-86l8-24l9-27c6-16,12-34,21-50c7-13,17-23,26-35s18-18,27-28l23-26l58-55c13-11,24-24,33-38c11-15,21-31,29-48
	c6-11,14-21,20-33l16-34c14-33,27-66,27-102l-2-83l-1-55H365L344,21z"/>
<path class="st0" d="M67,133c-19,33-41,63-64,94l-3,4v338l10-6c15-9,30-19,44-30c18-15,34-34,46-55c13-24,20-52,29-78
	c6-20,12-40,20-60s15-42,25-62l26-56l26-56c9-21,22-40,34-58c24-38.7,51.8-74.8,83-108H129C114.1,46.8,93.2,91.5,67,133z"/>
</svg>
