<svg xmlns="http://www.w3.org/2000/svg" id="Layer_1" data-name="Layer 1" viewBox="0 0 1920 1080"><defs><style>.cls-1{fill:#fff}</style></defs><path d="M841 242a336 336 0 0 1-57 85l-13 16-13 17c-5 4-8 10-12 15l-11 15-24 29a532 532 0 0 0-62 90 360 360 0 0 0-21 42 210 210 0 0 0-8 26l-6 29-14 57c-4 15-7 30-12 44a675 675 0 0 1-82 173l-17 23c-16 20-37 38-56 55s-41 34-62 50c-19 15-41 26-60 42a277 277 0 0 0-31 29l-1 1h532a853 853 0 0 1-7-304l13-48a457 457 0 0 1 17-46 366 366 0 0 1 19-38l23-34 49-66 1-2 52-64c34-40 72-77 108-115a518 518 0 0 0 49-62l22-36a681 681 0 0 0 46-95c14-34 28-67 44-100q17-36 36-70H824l2 6c8 28 17 54 23 82a551 551 0 0 1 9 65c1 12-1 24-2 36a146 146 0 0 1-15 53Z" class="cls-1"/><path d="M1193 949c43-60 88-120 122-185a1010 1010 0 0 0 78-202 977 977 0 0 0 28-167c0-28 1-58-1-87l-7-88c-3-38-6-75-5-113s6-72 16-107h-107l-4 7c-19 32-37 64-54 97s-34 64-49 96c-8 18-14 37-24 53-8 13-14 27-23 40a423 423 0 0 1-81 95 371 371 0 0 0-29 27 1072 1072 0 0 1-66 67c-10 9-18 19-26 29-11 15-24 29-37 44l-18 21-41 56a342 342 0 0 0-23 43 364 364 0 0 0-17 46 436 436 0 0 0-11 48 473 473 0 0 0-6 49l-1 26c-1 79 14 158 31 236h261ZM1769 167c-13 50-21 105-23 157s-15 108-41 152c-28 47-61 89-95 131a677 677 0 0 0-85 133c-8 17-16 34-22 52-17 53-11 110-2 164l25 124h88l12-34 15-54a878 878 0 0 0 21-110l6-69c4-26 13-51 24-74 13-26 29-49 44-72a1377 1377 0 0 1 137-174c12-13 28-36 47-43V0h-82c-31 51-53 110-69 167Z" class="cls-1"/><path d="M1483 967c-5-50-8-98 3-149 19-90 68-177 125-249a448 448 0 0 0 81-149c14-49 15-100 20-151s19-101 35-150c14-41 32-81 53-119h-348c-26 66-30 141-27 213 1 51 5 101 5 152 0 24-1 47-3 70-4 40-14 79-23 117q-11 53-27 105c-11 38-25 77-42 113-23 51-58 96-90 141l-101 139-23 30h376q-9-56-14-113ZM1857 909c16-11 33-18 51-25a40 40 0 0 1 12-2V487l-11 9-24 21c-30 28-60 57-87 88-35 39-66 82-87 130-11 25-21 51-26 78s-6 55-7 83l-2 36a939 939 0 0 1-23 129 110 110 0 0 1-6 19h136l2-28a496 496 0 0 1 10-57c4-16 14-33 23-47a168 168 0 0 1 39-39ZM26 178l21-35 14-29 21-45c9-22 17-44 23-67a12 12 0 0 0 0-2H0v219l26-41Z" class="cls-1"/><path d="M1875 927c-12 5-22 15-31 25-19 20-31 45-38 71-5 19-7 38-9 57h123V910c-16 3-31 10-45 17ZM263 1078l25-28a409 409 0 0 1 58-50l34-25 29-27a568 568 0 0 0 104-124 1319 1319 0 0 0 63-154c15-46 25-94 46-138a340 340 0 0 1 25-42l13-19 15-21c17-21 37-40 54-62l33-43c11-14 24-29 34-44a321 321 0 0 0 31-56 160 160 0 0 0 14-53c2-19 1-38-3-57-5-28-12-56-22-82-6-18-12-35-20-52l-1-1H549l-1 46-4 94a366 366 0 0 1-57 171 40 40 0 0 0-3 6c-7 14-14 29-23 42l-11 19c-11 17-26 30-39 45l-38 39-19 19-33 32c-7 7-13 15-19 24-14 20-23 43-33 65l-19 45a398 398 0 0 1-17 36c-6 11-14 21-23 31a879 879 0 0 1-83 79l-1 1-31 29-46 41c-17 15-34 30-49 47v169h261Z" class="cls-1"/><path d="M344 21a714 714 0 0 0-82 109l-15 23-2 3c-7 13-15 26-21 40l-18 39-17 38a709 709 0 0 0-29 78l-2 9-11 37-11 35c-8 31-18 60-37 86a211 211 0 0 1-33 37 212 212 0 0 1-19 16l-20 14-5 3-22 14v305c20-22 41-43 63-63l34-37 38-39c15-14 28-29 42-44a228 228 0 0 0 52-86l8-24 9-27c6-17 12-34 21-50 7-13 17-23 26-35s18-18 27-28l23-26 58-55a211 211 0 0 0 33-38c11-15 21-31 29-48l20-33a393 393 0 0 0 43-136l-2-83-1-55H365l-21 21Z" class="cls-1"/><path d="M67 133c-19 33-41 63-64 94l-3 4v338l10-6c15-9 30-19 44-30a197 197 0 0 0 46-55c13-24 20-52 29-78 6-20 12-40 20-60s15-42 25-62l26-56 26-56c9-21 22-40 34-58 15-23 30-45 47-66l36-42H129a579 579 0 0 1-24 61c-12 24-24 48-38 72Z" class="cls-1"/></svg>