<svg xmlns="http://www.w3.org/2000/svg" viewBox="0 0 192.275 192.275"><defs><style>.cls-2{fill:#07abdb}</style></defs><g id="Layer_3" data-name="Layer 3"><circle cx="96.138" cy="96.138" r="96.138" style="fill:#333"/><path class="cls-2" d="M197.241 358.507c-19.785 0-35.392-5.909-46.386-17.564-10.413-11.034-15.882-25.685-16.257-43.553a4.415 4.415 0 0 1-.01-.259 4 4 0 1 1 8-.114c.3 15.916 5.034 28.848 14.082 38.436 9.423 9.989 23.072 15.054 40.567 15.054s31.167-5.06 40.663-15.039c9.436-9.916 14.221-23.4 14.221-40.064v-55.88a17.863 17.863 0 0 0-5.02-12.715 16.9 16.9 0 0 0-11.262-5.16 4.008 4.008 0 1 1 .428-8 4.969 4.969 0 0 1 .627.062 24.993 24.993 0 0 1 15.944 7.525 25.724 25.724 0 0 1 7.283 18.291V295.4c0 18.79-5.527 34.125-16.426 45.579-11.061 11.632-26.695 17.528-46.454 17.528z" transform="translate(-101.219 -189.937)"/><path class="cls-2" d="M197.241 317.3c-6.661 0-11.4-1.646-14.5-5.029-3.156-3.447-4.756-9.122-4.756-16.866v-55.88a17.863 17.863 0 0 0-5.02-12.715 16.9 16.9 0 0 0-11.251-5.159 4.008 4.008 0 1 1 .431-8 4.85 4.85 0 0 1 .631.063 25 25 0 0 1 15.926 7.523 25.718 25.718 0 0 1 7.283 18.291V295.4c0 7.728 1.858 10.591 2.658 11.464 1.476 1.613 4.368 2.431 8.6 2.431 4.314 0 7.362-.839 8.815-2.427 1.511-1.65 2.471-5.267 2.634-9.922a4.005 4.005 0 1 1 8 .225c0 .136-.009.268-.022.4-.29 6.675-1.875 11.6-4.715 14.7-3.049 3.336-8.001 5.029-14.714 5.029z" transform="translate(-101.219 -189.937)"/><path d="M234.421 226.1a12.642 12.642 0 0 1 9.46 3.85 13.2 13.2 0 0 1 3.74 9.57v55.88q0 23.321-12.98 36.959T197.241 346q-24.42 0-37.29-13.641t-12.87-36.959v-55.88a13.183 13.183 0 0 1 3.74-9.57 13.547 13.547 0 0 1 18.92 0 13.2 13.2 0 0 1 3.74 9.57v55.88q0 13.422 5.94 19.909t17.82 6.491q12.1 0 18.04-6.491t5.94-19.909v-55.88a13.183 13.183 0 0 1 3.74-9.57 12.63 12.63 0 0 1 9.46-3.85z" transform="translate(-101.219 -189.937)" style="fill:#fff"/></g></svg>